    <svg xmlns="http://www.w3.org/2000/svg" width="60px" viewBox="0 0 38.6 45">
            <g id="header-pets">
            <path d="M19.5 12S17.9-.7 2.5 1.9c.1 0 1.6 15 17 10.1z" fill="#419251" />
            <path d="M19.3 10.8S18-.3 5.5 1.8c0 0 1.3 12.9 13.8 9z" fill="#61be7a" />
            <path d="M35.2 15.7c-5.3-5.3-15.8-2.2-15.8-2.2v.1-.1S8.9 10.7 3.6 16s-.7 19.6 1 21.8c0 0 6.4 10.1 14.6 5.2 8.3 4.9 14.6-5.2 14.6-5.2 1.9-2.2 6.7-16.8 1.4-22.1z" fill="#e45263" />
            <path fill="#fff" class="st15" d="M20 14.8v.1-.1c.1 0 9.4-3.2 14.1 2.3 3.3 3.8 2.2 12.1.7 17.6 1.8-4.6 4.4-15.8.3-20.3-4.8-5.3-14.3-2.2-14.3-2.2v.1-.1s-1.4 1.4-1.4 2.4c0 .4.6-1 .4-.6 5.1-3.6.2.8.2.8z" />
            <ellipse fill="#d62b47" class="st228" cx="19.7" cy="15.8" rx="3.4" ry="1.1" />
            <path fill="#594942" class="st22" d="M13.6 13.4c-2.4 0-4.6-.6-6.4-1.8-5-3.3-5.8-9.9-5.8-10.1l-.1-1 .9-.1c5.3-.9 9.7-.1 12.9 2.3 4.4 3.3 5.1 8.5 5.1 8.7l.1.8-.8.2c-2.1.6-4.1 1-5.9 1zM3.4 2.1c.4 1.8 1.5 5.7 4.8 7.9 2.5 1.7 5.9 1.9 10 .8-.4-1.4-1.4-4.5-4.2-6.6-2.7-2-6.2-2.7-10.6-2.1z" />
            <path fill="#594942" transform="rotate(-57.609 13.303 8.456)" class="st22" d="M12.3 1.4h1.9v14.2h-1.9z" />
            <circle fill="#594942" class="st22" cx="7.5" cy="4.7" r="1" />
            <path fill="#594942" class="st22" d="M20.1 15.5S13.8 7.1 18.8.8c0 0 2.2-1.5 3.7 1.3 0 0-4.3 7.3-.9 13.4h-1.5z" />
            <ellipse fill="#594942" class="st22" cx="19.7" cy="15.6" rx="3.4" ry="1" />
            <path fill="#d62b47" class="st228" d="M20.3 39.5c-7.9 4.8-12.9-5.1-12.9-5.1-1.7-2.1-6.3-15.8-1.2-21-1 .5-2 1.1-2.8 1.9-5.3 5.3-.5 19.7 1.2 21.9 0 0 6.4 10.1 14.6 5.2 8.3 4.9 14.6-5.2 14.6-5.2.3-.4.8-1.2 1.2-2.3-1.2 1.9-7.8 8.8-14.7 4.6z" />
            <path fill="#594942" class="st22" d="M14.6 45c-4.9 0-8.9-3.9-10.7-6.7-1.9-2.5-7-17.5-1.1-23.4 5.3-5.3 14.9-3.2 16.5-2.8 1.6-.4 11.3-2.8 16.6 2.5 5.8 5.8.8 20.9-1.2 23.4-2.3 3.7-8.5 9.4-15.4 5.7-1.6 1-3.2 1.3-4.7 1.3zM13 13.4c-3 0-6.6.6-8.9 3-4.8 4.8-.2 19 1.3 20.9l.1.1c.2.4 6 9 13.3 4.6l.5-.3.5.3c7.4 4.4 13.1-4.5 13.3-4.9l.1-.1c1.5-1.9 6.2-16 1.3-20.9C30.2 11.8 22 13.5 20 14l-.8 1.8-.7-1.8c-.9-.2-3-.6-5.5-.6z" />
            <g opacity=".5" class="st19">
            <path fill="#fff" class="st15" d="M6.7 17.9h1.9v2.4H6.7z" />
            <ellipse fill="#fff" transform="rotate(-37.768 7.674 18.044)" class="st15" cx="7.7" cy="18" rx="1" ry="1" />
            <ellipse fill="#fff" transform="rotate(-37.768 7.674 20.268)" class="st15" cx="7.7" cy="20.3" rx="1" ry="1" />
            </g>
            <g opacity=".5" class="st19">
            <path fill="#fff" class="st15" d="M6.7 23.8h1.9v6.1H6.7z" />
            <ellipse fill="#fff" transform="rotate(-37.768 7.674 23.814)" class="st15" cx="7.7" cy="23.8" rx="1" ry="1" />
            <ellipse fill="#fff" transform="rotate(-37.768 7.675 29.925)" class="st15" cx="7.7" cy="29.9" rx="1" ry="1" />
            </g>
            <g>
            <path fill="#594942" class="st22" d="M15.4 25v.2s.2 4.1 3.6 4c3.4-.1 3.3-4.2 3.3-4.2v-.2l-6.9.2z" />
            <path d="M18.9 26.4c-1.1 0-2 .6-2.2 1.3.3.7 1.2 1.2 2.3 1.2 1.1 0 2-.6 2.2-1.3-.2-.8-1.2-1.3-2.3-1.2z" fill="#f0bbd6" />
            <ellipse fill="#594942" transform="matrix(.9997 -.02297 .02297 .9997 -.523 .553)" class="st22" cx="23.8" cy="23" rx="1.4" ry="1.5" />
            <ellipse fill="#594942" transform="matrix(.9997 -.02297 .02297 .9997 -.522 .353)" class="st22" cx="15.1" cy="22.9" rx="1.4" ry="1.5" />
            </g>
            </g>
            </svg>