<svg xmlns="http://www.w3.org/2000/svg" viewBox="0 0 100 100">
			<path fill="#419251" d="M56.62,31.23s1-25.15-29.69-24.93C26.93,6.3,25.21,35.82,56.62,31.23Z"></path><path fill="#61be7a" d="M56.49,28.8s1-21.9-23.86-21.72C32.62,7.09,31,32.54,56.49,28.8Z"></path><path fill="#e45263" d="M85.71,43.21c-8.68-12-30-9.26-30-9.26l-.12.2-.05-.23s-19.39-8.75-31.4-.07S16.94,71.78,19.7,76.58c0,0,9.14,21.58,26.7,14.6,14.47,12.15,29.94-5.47,29.94-5.47C80.47,82,94.39,55.22,85.71,43.21Z"></path><path fill="#fff" d="M56.57,36.74l0,.23.11-.2s19-3.24,26.5,8.78c5.2,8.36.52,24.2-4.07,34.37,5-8.37,13.37-29.19,6.84-39.21-7.7-11.81-27.07-8.77-27.07-8.77l-.11.2,0-.22s-3.18,2.23-3.47,4.21c-.12.83,1.46-1.76.91-1.11C67.46,29.7,56.57,36.74,56.57,36.74Z"></path><ellipse fill="#d62b47" cx="55.63" cy="38.67" rx="2.25" ry="6.69" transform="translate(8.59 87.43) rotate(-80.84)"></ellipse><path fill="#594942" d="M44.67,32a22.51,22.51,0,0,1-11.91-5.53c-8.7-8-8.06-20.91-8-21.46l.1-1.75h1.75C37.21,3.18,45.4,6,50.93,11.74a27,27,0,0,1,7.23,18.39l-.06,1.55-1.54.23A39.23,39.23,0,0,1,44.67,32ZM28.48,7c.16,3.54,1.17,11.55,6.82,16.72,4.4,4,10.81,5.59,19,4.68a23.29,23.29,0,0,0-6.15-14.11C43.73,9.72,37.1,7.27,28.48,7Z"></path><rect fill="#594942" x="43.76" y="8.52" width="3.74" height="27.79" transform="translate(-1.41 41.7) rotate(-48.45)"></rect><circle fill="#594942" cx="35.5" cy="13.41" r="1.89" transform="translate(16.61 46.33) rotate(-80.84)"></circle><path fill="#594942" d="M56.54,38.13S47.06,19.9,58.62,9.34c0,0,4.65-2.25,6.69,3.65,0,0-10.64,12.85-5.84,25.62Z"></path><ellipse fill="#594942" cx="55.71" cy="38.18" rx="1.97" ry="6.69" transform="translate(9.15 87.1) rotate(-80.84)"></ellipse><path fill="#d62b47" d="M49.56,84.78C32.75,91.53,26.12,71,26.12,71c-2.63-4.61-7.17-32.62,4.19-41.1a19.2,19.2,0,0,0-6,2.86c-12,8.68-7.21,37.94-4.44,42.74,0,0,9.14,21.58,26.7,14.6,14.47,12.15,29.94-5.47,29.94-5.47a20.32,20.32,0,0,0,3.05-4.11C76.43,83.67,61.58,94.94,49.56,84.78Z"></path><path fill="#594942" d="M36.69,93.67c-9.5-1.53-16-10.37-18.66-16.25-3-5.4-8.07-36.13,5.11-45.65C35.06,23.16,53,30.22,56,31.48c3.25-.34,22.69-1.86,31.31,10.07h0c9.5,13.15-5,40.68-9.55,44.92-5.68,6.42-19.33,15.65-31.62,6.28A19.25,19.25,0,0,1,36.69,93.67Zm6.88-61.84c-5.88-.95-12.92-.87-18.23,3-10.9,7.87-6.4,36.69-4,40.85l.09.18c.35.79,8.74,19.28,24.39,13.06l1-.41.86.72C60.58,100,74.44,84.58,75,83.92l.16-.16c3.59-3.2,17-29.14,9.1-40-7-9.66-23.42-8.91-27.37-8.58l-2,3.21L54,34.72A52.06,52.06,0,0,0,43.57,31.83Z"></path><g opacity="0.5"><rect fill="#fff" x="29.05" y="39.32" width="4.73" height="3.74" transform="translate(-14.25 65.65) rotate(-80.84)"></rect><circle fill="#fff" cx="31.74" cy="39.22" r="1.89" transform="translate(-14.91 19.99) rotate(-28.61)"></circle><circle fill="#fff" cx="31.04" cy="43.53" r="1.89" transform="translate(-17.05 20.18) rotate(-28.61)"></circle></g><g opacity="0.5"><rect fill="#fff" x="22.99" y="54.44" width="11.99" height="3.74" transform="translate(-31.23 75.96) rotate(-80.84)"></rect><circle fill="#fff" cx="29.93" cy="50.4" r="1.89" transform="translate(-20.48 20.49) rotate(-28.61)"></circle><circle fill="#fff" cx="28.03" cy="62.23" r="1.89" transform="translate(-26.38 21.02) rotate(-28.61)"></circle></g><path fill="#594942" d="M46,51.72l-.06.42c0,.07-1,7.26,5.57,8.24s7.72-6.18,7.74-6.25l.06-.42Z"></path><path fill="#f0bbd6" d="M52.25,55.36c-2.1-.31-4,.35-4.7,1.52.33,1.33,1.95,2.52,4,2.83s4-.35,4.7-1.52C56,56.86,54.35,55.67,52.25,55.36Z"></path><circle fill="#594942" cx="61.55" cy="50.71" r="2.68" transform="matrix(0.16, -0.99, 0.99, 0.16, 1.69, 103.4)"></circle><circle fill="#594942" cx="44.91" cy="48.03" r="2.68" transform="translate(-9.65 84.72) rotate(-80.84)"></circle></svg>