        <svg xmlns="http://www.w3.org/2000/svg" viewBox="0 0 100 100">
          <path
            fill="#43C4F4"
            d="M91.49,63.25a3.39,3.39,0,0,1-2.85-1.54l-20.79-32a3.31,3.31,0,0,1,.91-4.56,3.4,3.4,0,0,1,4.77.95l20.79,32a3.31,3.31,0,0,1-.91,4.56A3.36,3.36,0,0,1,91.49,63.25Z"
          ></path>
          <path
            fill="#5f5271"
            d="M70.68,25.94a2,2,0,0,1,1.7.92l20.79,32a2,2,0,0,1-.54,2.69h0A2,2,0,0,1,89.78,61L69,29a2,2,0,0,1,.54-2.69,2,2,0,0,1,1.14-.35m0-2.74h0A4.74,4.74,0,0,0,68,24a4.68,4.68,0,0,0-1.28,6.44l20.79,32a4.77,4.77,0,0,0,6.69,1.33,4.68,4.68,0,0,0,1.28-6.44l-20.79-32a4.75,4.75,0,0,0-4-2.16Z"
          ></path>
          <g opacity="0.5">
            <ellipse
              fill="#cadef9"
              cx="50"
              cy="77.44"
              rx="42.5"
              ry="5.74"
            ></ellipse>
          </g>
          <path
            fill="#43C4F4"
            d="M9.09,63.25a3.38,3.38,0,0,1-1.92-.59,3.32,3.32,0,0,1-.91-4.56L27,26.12a3.4,3.4,0,0,1,4.77-.95,3.31,3.31,0,0,1,.91,4.56l-20.79,32a3.39,3.39,0,0,1-2.85,1.54Z"
          ></path>
          <path
            fill="#5f5271"
            d="M29.9,25.94A2,2,0,0,1,31,26.3,2,2,0,0,1,31.58,29L10.79,61a2,2,0,0,1-2.85.56h0a2,2,0,0,1-.54-2.69l20.79-32a2,2,0,0,1,1.7-.92m0-2.74a4.75,4.75,0,0,0-4,2.16l-20.79,32a4.68,4.68,0,0,0,1.28,6.44,4.77,4.77,0,0,0,6.69-1.33l20.79-32A4.68,4.68,0,0,0,32.59,24a4.74,4.74,0,0,0-2.69-.84Z"
          ></path>
          <path
            fill="#fff"
            d="M27,77A11.43,11.43,0,0,1,15.74,68.6L6.45,32.17H94.13L84.84,68.6A11.43,11.43,0,0,1,73.57,77Z"
          ></path>
          <path
            fill="#5f5271"
            d="M92.37,33.54,83.52,68.27a10.1,10.1,0,0,1-9.94,7.32H27a10.1,10.1,0,0,1-9.94-7.32L8.21,33.54H92.37m3.52-2.74H4.69l.87,3.41,8.85,34.72A12.8,12.8,0,0,0,27,78.32H73.57a12.8,12.8,0,0,0,12.6-9.38L95,34.22l.87-3.41Z"
          ></path>
          <rect
            fill="#cadef9"
            x="1.83"
            y="24.57"
            width="96.35"
            height="14.62"
            rx="2.87"
            ry="2.87"
          ></rect>
          <path
            fill="#5f5271"
            d="M95.3,25.94a1.51,1.51,0,0,1,1.5,1.5v8.87a1.51,1.51,0,0,1-1.5,1.5H4.7a1.51,1.51,0,0,1-1.5-1.5V27.45a1.51,1.51,0,0,1,1.5-1.5H95.3m0-2.74H4.7A4.25,4.25,0,0,0,.46,27.45v8.87A4.25,4.25,0,0,0,4.7,40.56H95.3a4.25,4.25,0,0,0,4.24-4.24V27.45A4.25,4.25,0,0,0,95.3,23.2Z"
          ></path>
          <rect
            fill="#cadef9"
            x="25.88"
            y="46.34"
            width="6.02"
            height="24.92"
            rx="2.2"
            ry="2.2"
          ></rect>
          <rect
            fill="#cadef9"
            x="47.15"
            y="46.34"
            width="6.02"
            height="24.92"
            rx="2.2"
            ry="2.2"
          ></rect>
          <rect
            fill="#cadef9"
            x="36.51"
            y="46.34"
            width="6.02"
            height="24.92"
            rx="2.2"
            ry="2.2"
          ></rect>
          <rect
            fill="#cadef9"
            x="57.91"
            y="46.34"
            width="6.02"
            height="24.92"
            rx="2.2"
            ry="2.2"
          ></rect>
          <rect
            fill="#cadef9"
            x="68.68"
            y="46.34"
            width="6.02"
            height="24.92"
            rx="2.2"
            ry="2.2"
          ></rect>
          <ellipse
            fill="#ffc03a"
            cx="35.06"
            cy="31.91"
            rx="7.43"
            ry="7.34"
          ></ellipse>
          <path
            fill="#5f5271"
            d="M35.06,25.94a6,6,0,1,1-6.06,6,6,6,0,0,1,6.06-6m0-2.74a8.71,8.71,0,1,0,8.8,8.71,8.76,8.76,0,0,0-8.8-8.71Z"
          ></path>
          <path
            fill="#43C4F"
            d="M8.91,63.29a3.38,3.38,0,0,1-2.38-1,3.32,3.32,0,0,1-.11-4.65l26-27.92a3.4,3.4,0,0,1,4.86-.11,3.31,3.31,0,0,1,.11,4.65l-26,27.92a3.41,3.41,0,0,1-2.49,1.08Z"
          ></path>
          <path
            fill="#5f5271"
            d="M34.9,30a2,2,0,0,1,1.42.58,2,2,0,0,1,.06,2.74l-26,27.92a2,2,0,0,1-2.9.07h0a2,2,0,0,1-.06-2.74l26-27.92A2,2,0,0,1,34.9,30m0-2.74a4.78,4.78,0,0,0-3.49,1.52l-26,27.92a4.68,4.68,0,0,0,.15,6.56,4.77,4.77,0,0,0,6.82-.16l26-27.92a4.68,4.68,0,0,0-.15-6.56,4.74,4.74,0,0,0-3.33-1.36Z"
          ></path>
          <ellipse
            fill="#ffc03a"
            cx="65.28"
            cy="31.91"
            rx="7.43"
            ry="7.34"
          ></ellipse>
          <path
            fill="#5f5271"
            d="M65.28,25.94a6,6,0,1,1-6.06,6,6,6,0,0,1,6.06-6m0-2.74a8.71,8.71,0,1,0,8.8,8.71,8.76,8.76,0,0,0-8.8-8.71Z"
          ></path>
          <path
            fill="#43C4F"
            d="M91.43,63.29a3.41,3.41,0,0,1-2.49-1.08L63,34.29a3.31,3.31,0,0,1,.11-4.65,3.4,3.4,0,0,1,4.86.11l26,27.92a3.32,3.32,0,0,1-.11,4.65A3.38,3.38,0,0,1,91.43,63.29Z"
          ></path>
          <path
            fill="#5f5271"
            d="M65.44,30a2,2,0,0,1,1.48.64l26,27.92a2,2,0,0,1-.06,2.74h0a2,2,0,0,1-2.9-.07L64,33.36A2,2,0,0,1,64,30.62,2,2,0,0,1,65.44,30m0-2.74h0a4.74,4.74,0,0,0-3.33,1.36A4.68,4.68,0,0,0,62,35.23l26,27.92a4.77,4.77,0,0,0,6.82.16,4.68,4.68,0,0,0,.15-6.56l-26-27.92a4.78,4.78,0,0,0-3.49-1.52Z"
          ></path>
        </svg>