<svg xmlns="http://www.w3.org/2000/svg" viewBox="0 0 100 100">
			<g id="O4OaZ4.tif"><path fill="#a27a60" d="M92.63,30.14V33.2a15,15,0,0,1-5.17,7.51,2.31,2.31,0,0,0-.57,1.58q-.38,14.29-.68,28.57c-.1,4.85-.17,9.7-.25,14.56H28.47c0-.5.08-1,.07-1.51-.29-13.23-.63-26.46-.86-39.69,0-1.93-.41-3.39-2.08-4.58a10.55,10.55,0,0,1-2.52-2.92,8.6,8.6,0,0,1-.35-9.32,15.67,15.67,0,0,1,5.34-5.53c5.46-3.64,11.6-5.38,18-6.41,2.09-.33,4.19-.57,6.29-.86h9.72a8,8,0,0,0,1.19.27A53.71,53.71,0,0,1,78.35,18C84.52,20.35,90.3,23.24,92.63,30.14Z"></path></g><g id="O4OaZ4.tif-2" data-name="O4OaZ4.tif"><path fill="#5a4a43" d="M86,87.48H28.47a2.07,2.07,0,0,1-2.07-2.17l0-.53c0-.28,0-.56,0-.84L26.22,73c-.22-9.44-.45-19.2-.61-28.8,0-1.63-.3-2.28-1.2-2.92a12.35,12.35,0,0,1-3.06-3.48,10.66,10.66,0,0,1-.44-11.43,17.66,17.66,0,0,1,6-6.28c5-3.33,11-5.47,18.82-6.73,1.45-.23,2.91-.42,4.37-.61l2-.26.28,0h9.72a2.06,2.06,0,0,1,.47.06l.45.12a3.56,3.56,0,0,0,.41.1,55.49,55.49,0,0,1,15.67,3.28c6.09,2.31,12.82,5.44,15.5,13.4a2.07,2.07,0,0,1,.11.66V33.2a2.08,2.08,0,0,1-.08.58A16.81,16.81,0,0,1,89,42.13a1.15,1.15,0,0,0,0,.21q-.38,14.28-.68,28.56c-.07,3.37-.13,6.75-.18,10.12L88,85.45A2.07,2.07,0,0,1,86,87.48ZM30.6,83.34H83.93L84,81c.05-3.38.11-6.77.18-10.15q.31-14.29.68-28.58a4.34,4.34,0,0,1,1.33-3.13,13,13,0,0,0,4.41-6.21v-2.4c-2-5.43-6.42-8.07-12.94-10.54a51.42,51.42,0,0,0-14.51-3,6.07,6.07,0,0,1-1.22-.24l-.08,0H52.49l-1.86.24c-1.42.18-2.83.36-4.24.59-7.23,1.16-12.69,3.09-17.18,6.09a13.49,13.49,0,0,0-4.67,4.79,6.57,6.57,0,0,0,.26,7.22,8.84,8.84,0,0,0,2,2.36,7.05,7.05,0,0,1,3,6.23c.17,9.59.39,19.35.61,28.78Z"></path></g><g id="O4OaZ4.tif-3" data-name="O4OaZ4.tif"><path fill="#fff2c5" d="M78.88,30.14V33.2a15,15,0,0,1-5.17,7.51,2.31,2.31,0,0,0-.57,1.58q-.38,14.29-.68,28.57c-.1,4.85-.17,9.7-.25,14.56H14.72c0-.5.08-1,.07-1.51-.29-13.23-.63-26.46-.86-39.69,0-1.93-.41-3.39-2.08-4.58a10.55,10.55,0,0,1-2.52-2.92A8.6,8.6,0,0,1,9,27.39a15.67,15.67,0,0,1,5.34-5.53c5.46-3.64,11.6-5.38,18-6.41,2.09-.33,4.19-.57,6.29-.86h9.72a8,8,0,0,0,1.19.27A53.71,53.71,0,0,1,64.6,18C70.77,20.35,76.55,23.24,78.88,30.14Z"></path></g><path fill="#f3e1a3" d="M19.79,79.13c0-.5.08-1,.07-1.51-.29-13.23-.63-26.46-.86-39.69,0-1.93-.41-3.39-2.08-4.58a10.54,10.54,0,0,1-2.52-2.92,8.57,8.57,0,0,1-.46-9.09c-.27.17-.55.33-.83.51a15.66,15.66,0,0,0-5.34,5.53,8.6,8.6,0,0,0,.35,9.32,10.55,10.55,0,0,0,2.52,2.92c1.67,1.18,2,2.64,2.08,4.58.23,13.23.56,26.46.86,39.69,0,.5,0,1-.07,1.51H71q.05-3.14.11-6.28Z"></path><path fill="#fff" d="M62.32,18a53.71,53.71,0,0,0-15.09-3.16A8,8,0,0,1,46,14.59H43.8a8,8,0,0,0,1.19.27A53.71,53.71,0,0,1,60.07,18c6.17,2.34,12,5.22,14.27,12.13V33.2c-.9,3.07-3.31,4.42-5.78,6.43A2.31,2.31,0,0,0,68,41.21c-.25,9.52.13,20.12-.07,29.65-.1,4.85-.17,9.7-.25,14.56h2.25c.08-4.85.14-9.7.25-14.56q.31-14.29.68-28.57a2.31,2.31,0,0,1,.57-1.58A15,15,0,0,0,76.6,33.2V30.14C74.27,23.24,68.49,20.35,62.32,18Z"></path><path fill="#b48c72" d="M64.19,17.14A53.72,53.72,0,0,0,49.1,14a8,8,0,0,1-1.19-.27H38.19c-2.1.28-4.2.52-6.29.86-6.39,1-12.54,2.77-18,6.41a15.66,15.66,0,0,0-5.34,5.53,8.54,8.54,0,0,0-.49,7.72,11.29,11.29,0,0,1,.49-1.05,15.66,15.66,0,0,1,5.34-5.53c5.46-3.64,11.6-5.38,18-6.41,2.09-.33,4.19-.57,6.29-.86h9.72a8,8,0,0,0,1.19.27,53.72,53.72,0,0,1,15.09,3.16c5.62,2.13,10.89,4.75,13.54,10.42a14,14,0,0,0,.73-1.9V29.27C76.14,22.37,70.36,19.48,64.19,17.14Z"></path><g id="O4OaZ4.tif-4" data-name="O4OaZ4.tif"><path fill="#5a4a43" d="M71.81,87.48H14.31a2.07,2.07,0,0,1-2.07-2.17l0-.51c0-.28,0-.57,0-.85l-.25-11.1c-.22-9.37-.44-19.06-.61-28.6,0-1.63-.3-2.28-1.2-2.92a12.38,12.38,0,0,1-3.06-3.48,10.67,10.67,0,0,1-.44-11.43,17.68,17.68,0,0,1,6-6.28c5-3.33,11-5.47,18.82-6.73C33,13.17,34.5,13,36,12.79l2-.26.28,0h9.72a2.09,2.09,0,0,1,.47.05l.46.12a3.73,3.73,0,0,0,.41.1,55.47,55.47,0,0,1,15.67,3.28c6.1,2.31,12.82,5.44,15.5,13.4a2.07,2.07,0,0,1,.11.66V33.2a2,2,0,0,1-.08.58,16.8,16.8,0,0,1-5.63,8.35,1.15,1.15,0,0,0,0,.21q-.38,14.28-.68,28.56C74,74.27,74,77.63,73.94,81l-.07,4.44A2.07,2.07,0,0,1,71.81,87.48ZM16.44,83.34H69.77l0-2.4c.05-3.38.1-6.75.18-10.13q.31-14.29.68-28.58A4.34,4.34,0,0,1,72,39.1a13,13,0,0,0,4.41-6.21v-2.4c-2-5.43-6.42-8.07-12.94-10.54a51.39,51.39,0,0,0-14.51-3,6.07,6.07,0,0,1-1.21-.24l-.08,0H38.34l-1.85.24c-1.42.18-2.84.36-4.25.59C25,18.65,19.55,20.58,15.07,23.57a13.49,13.49,0,0,0-4.67,4.79,6.57,6.57,0,0,0,.26,7.22,8.88,8.88,0,0,0,2,2.36,7.05,7.05,0,0,1,3,6.23c.16,9.52.39,19.21.61,28.58Z"></path></g><circle fill="#5a4a43" cx="19.72" cy="30.83" r="1.88"></circle><circle fill="#5a4a43" opacity="0.3" cx="26.69" cy="30.83" r="1.88"></circle><circle fill="#5a4a43" cx="23.04" cy="37.11" r="1.88"></circle><path fill="#594942" d="M33.22,46l0,.47c0,.08-.19,8.12,6.62,8.34S47,47,47,46.87l0-.47Z"></path><path fill="#f0bbd6" d="M40,49.15c-2.17-.07-4,.91-4.61,2.3.48,1.42,2.27,2.51,4.45,2.58s4-.91,4.61-2.3C43.93,50.31,42.14,49.22,40,49.15Z"></path><ellipse fill="#594942" cx="49.36" cy="41.82" rx="2.84" ry="3.08" transform="translate(-1.73 2.13) rotate(-2.43)"></ellipse><ellipse fill="#594942" cx="30.48" cy="41.94" rx="2.84" ry="3.08" transform="translate(-1.75 1.33) rotate(-2.43)"></ellipse></svg>