    <svg xmlns="http://www.w3.org/2000/svg" width="60px" viewBox="0 0 52.7 44.1">
            <g id="header-pets">
            <path d="M51.5 10.3v1.8c-.5 1.8-1.6 3.2-3.1 4.4-.2.2-.3.6-.3.9-.1 5.6-.3 11.3-.4 16.9-.1 2.9-.1 5.7-.1 8.6h-34V42c-.2-7.8-.4-15.6-.5-23.4 0-1.1-.2-2-1.2-2.7-.6-.4-1.1-1.1-1.5-1.7-1.2-1.8-1.2-3.6-.2-5.5.7-1.4 1.9-2.4 3.2-3.3 3.2-2.2 6.9-3.2 10.6-3.8 1.2-.2 2.5-.3 3.7-.5h5.7c.2.1.5.1.7.2 3.1.2 6.1.8 8.9 1.9 3.7 1.4 7.1 3.1 8.5 7.1z" fill="#a27a60" id="O4OaZ4.tif_17_"/>
            <path fill="#594942" class="st22" d="M48.7 44.1H12.4l.1-1.5v-.5l-.1-6.6c-.1-5.6-.3-11.3-.4-16.9 0-1-.2-1.4-.7-1.8-.7-.5-1.3-1.3-1.8-2-1.4-2.1-1.5-4.4-.3-6.6.7-1.4 1.9-2.6 3.5-3.7 2.9-2 6.5-3.2 11.1-4 .8-.1 1.7-.2 2.6-.4l1.3-.1h6c.1 0 .2 0 .3.1.1 0 .2.1.3.1 3.5.3 6.5.9 9.2 1.9 3.6 1.4 7.5 3.2 9.1 7.9l.1.2v2.3c-.6 1.9-1.6 3.5-3.3 4.9v.2c-.1 5.6-.3 11.3-.4 16.9 0 2-.1 3.9-.1 5.9l-.2 3.7zm-33.9-2.3h31.7v-1.6c0-2 .1-3.9.1-5.9.1-5.6.3-11.3.4-16.9 0-.3.1-1.2.8-1.8 1.3-1.1 2.2-2.3 2.6-3.7v-1.4c-1.2-3.2-3.8-4.8-7.7-6.3-2.5-1-5.4-1.5-8.6-1.8-.3 0-.5-.1-.7-.1h-5.6l-1.1.1c-.8.1-1.7.2-2.5.3-4.3.8-7.5 1.9-10.2 3.7-1.3.9-2.2 1.8-2.8 2.9-.8 1.5-.8 2.9.2 4.3.4.6.8 1.1 1.2 1.4 1.5 1 1.7 2.4 1.7 3.6.1 5.6.2 11.3.4 16.9l.1 6.3z" id="O4OaZ4.tif_16_"/>
            <path d="M43.4 10.3v1.8c-.5 1.8-1.6 3.2-3.1 4.4-.2.2-.3.6-.3.9-.1 5.6-.3 11.3-.4 16.9-.1 2.9-.1 5.7-.1 8.6h-34V42c-.1-7.7-.3-15.5-.5-23.4 0-1.1-.2-2-1.2-2.7-.6-.4-1.1-1.1-1.5-1.7-1.2-1.8-1.2-3.6-.2-5.5.7-1.4 1.9-2.4 3.2-3.3 3.2-2.2 6.9-3.2 10.6-3.8 1.2-.2 2.5-.3 3.7-.5h5.7c.2.1.5.1.7.2 3.1.2 6.1.8 8.9 1.9 3.7 1.4 7.1 3.1 8.5 7.1z" fill="#fff2c5" id="O4OaZ4.tif_15_"/>
            <path d="M8.5 39.3v-.9c-.1-7.8-.3-15.6-.5-23.5 0-1.1-.2-2-1.2-2.7-.6-.4-1.1-1.1-1.5-1.7C4.2 8.8 4.1 7 5 5.1c-.1.1-.3.2-.5.3-1.2.9-2.4 1.9-3.1 3.3-1 1.9-.9 3.7.2 5.5.4.6.9 1.3 1.5 1.7 1 .7 1.2 1.6 1.2 2.7.1 7.8.3 15.6.5 23.4v.9h34c0-1.2 0-2.5.1-3.7-10.2.1-20.3.1-30.4.1z" fill="#f3e1a3"/>
            <path d="M33.6 3.2c-2.9-1.1-5.9-1.6-8.9-1.9-.2 0-.5-.1-.7-.2h-1.3c.2.1.5.1.7.2 3.1.2 6.1.8 8.9 1.9 3.6 1.4 7.1 3.1 8.4 7.2v1.8c-.5 1.8-2 2.6-3.4 3.8-.2.2-.3.6-.3.9-.1 5.6.1 11.9 0 17.5-.1 2.9-.1 5.7-.1 8.6h1.3c0-2.9.1-5.7.1-8.6.1-5.6.3-11.3.4-16.9 0-.3.1-.8.3-.9 1.5-1.2 2.5-2.6 3.1-4.4v-1.8c-1.4-4.1-4.8-5.8-8.5-7.2z" fill="#fff"/>
            <path d="M34.7 2.7c-2.9-1.1-5.9-1.6-8.9-1.9-.2 0-.5-.1-.7-.2h-5.7c-1.2.2-2.5.3-3.7.5-3.8.6-7.5 1.7-10.7 3.8-1.3.9-2.4 1.9-3.1 3.3-.9 1.5-1 3.1-.3 4.6l.3-.6c.7-1.5 1.8-2.5 3.1-3.3 3.2-2.2 6.9-3.2 10.6-3.8 1.2-.2 2.5-.3 3.7-.5H25c.2.1.5.1.7.2 3.1.2 6.1.8 8.9 1.9 3.3 1.3 6.4 2.8 8 6.2.2-.4.3-.7.4-1.1V10c-1.2-4.3-4.6-6-8.3-7.3z" fill="#b48c72"/>
            <path fill="#594942" class="st22" d="M40.3 44.1H4l.1-1.5v-.5L4 35.6c-.1-5.6-.3-11.3-.4-16.9 0-1-.2-1.4-.7-1.8-.8-.5-1.3-1.3-1.8-2-1.4-2.1-1.5-4.4-.3-6.7.7-1.4 1.9-2.6 3.5-3.7 2.9-2 6.5-3.2 11.1-4 .9-.1 1.7-.2 2.6-.4l1.4-.1h6c.1 0 .2 0 .3.1.1 0 .2.1.3.1 3.5.3 6.5.9 9.2 1.9 3.6 1.4 7.5 3.2 9.1 7.9l.1.2v2.3c-.6 1.9-1.6 3.5-3.3 4.9v.2c-.1 5.6-.3 11.3-.4 16.9 0 2-.1 3.9-.1 5.9l-.3 3.7zM6.4 41.8h31.7v-1.6c0-2 .1-3.9.1-5.9.1-5.6.3-11.3.4-16.9 0-.3.1-1.2.8-1.8 1.3-1.1 2.2-2.3 2.6-3.7v-1.4c-1.2-3.2-3.8-4.8-7.7-6.3-2.5-1-5.4-1.5-8.6-1.8-.3 0-.5-.1-.7-.1h-5.6l-1.1.1c-.8.1-1.7.2-2.5.3-4.3.8-7.5 1.9-10.1 3.7-1.4.9-2.3 1.8-2.8 2.9-.8 1.5-.8 2.9.2 4.3.4.6.8 1.1 1.2 1.4C5.8 16 6 17.4 6 18.6c0 5.7.2 11.3.3 16.9l.1 6.3z" id="O4OaZ4.tif_14_"/>
            <g>
            <path fill="#594942" class="st22" d="M17.3 18.6v.2s.2 4.1 3.6 4c3.4-.1 3.3-4.2 3.3-4.2v-.2l-6.9.2z"/>
            <path d="M20.8 20c-1.1 0-2 .6-2.2 1.3.3.7 1.2 1.2 2.3 1.2 1.1 0 2-.6 2.2-1.3-.3-.8-1.2-1.2-2.3-1.2z" fill="#f0bbd6"/>
            <ellipse fill="#594942" transform="matrix(.9997 -.02297 .02297 .9997 -.375 .594)" class="st22" cx="25.7" cy="16.6" rx="1.4" ry="1.5"/>
            <ellipse fill="#594942" transform="matrix(.9997 -.02297 .02297 .9997 -.375 .393)" class="st22" cx="16.9" cy="16.5" rx="1.4" ry="1.5"/>
            </g>
            <circle opacity=".25" fill="#5a4a43" class="st447" cx="9.5" cy="9.7" r="1.4"/>
            <circle opacity=".25" fill="#5a4a43" class="st447" cx="14.5" cy="9.7" r="1.4"/>
            <circle opacity=".25" fill="#5a4a43" class="st447" cx="11.9" cy="14.3" r="1.4"/>
            </g>
            </svg>