    <svg xmlns="http://www.w3.org/2000/svg" width="60px" viewBox="0 0 42.6 42.5">
            <g id="header-produce">
            <path d="M30.5 25.9l-4.8-.2c-.3 1.6-1 3.5-2.5 3.5s-2-2.9-2.1-3.7l-7.5-.3s3.3 3.7 4.3 8.1c1.1 4.4.6 6.7.6 6.7s1.8 1.6 3.7 1.5c2 0 3.2-1.7 3.2-1.7s-1.3-8.2 5.1-13.9z" fill="#65b170" />
            <path fill="#fff" class="st15" d="M30.7 25.8h-1.4c-6.4 5.8-4.2 14-4.2 14s-1.7 1.3-3.2 1.6c.2 0 .5.1.7.1 2 0 3.2-1.7 3.2-1.7s-1.6-8.2 4.9-14z" />
            <path fill="#589e67" class="st129" d="M21.7 25.5l-7.5-.3s1.4 1.6 2.7 4c1-.1 1.9-.5 2.6-1.2.7.7 1.7 1.2 2.8 1.1.3 0 .6-.1.9-.1-1-.6-1.4-2.8-1.5-3.5zM26.1 26.7c.7.8 1.6 1.5 2.6 1.9.6-.9 1.4-1.9 2.4-2.7l-4.8-.2c0 .3-.1.7-.2 1z" />
            <path fill="#419251" class="st130" d="M34 3.8c-1.3 0-2.5.6-3.3 1.5-.6-2.6-3-4.5-5.7-4.4-1.5 0-2.9.6-3.9 1.6-1.2-.9-2.7-1.5-4.3-1.5-3.8.1-6.8 3.2-6.7 7 .1 3.8 3.2 6.8 6.9 6.7 2.2 0 4.2-1.2 5.4-2.9.8.4 1.8.7 2.7.6 1.9 0 3.5-1 4.6-2.4.7 1.8 2.4 3.1 4.4 3 2.6 0 4.6-2.2 4.6-4.7S36.6 3.8 34 3.8z" />
            <path fill="#4f7b56" class="st131" d="M37.5 6.8c-1.2-.9-2.7-1.4-4.4-1.4-1.2 0-2.4.3-3.4.9-1.3-1.8-3.5-3-5.9-3-3.2.1-5.9 2.2-6.7 5.1-.7-.3-1.4-.5-2.2-.5-1.7 0-3.3 1-4.1 2.4 1.3 1.3 3.1 2.1 5 2.1 2.2 0 4.2-1.2 5.4-2.9.8.4 1.8.7 2.7.6 1.9 0 3.5-1 4.6-2.4.7 1.8 2.4 3.1 4.4 3 2.4 0 4.3-1.7 4.6-3.9z" />
            <ellipse transform="rotate(-.992 34.679 8.312) scale(1.00005)" cx="34.7" cy="8.3" rx="4.4" ry="4.4" fill="#44724c" />
            <path fill="#594942" class="st22" d="M17 15.6c-4.3.1-7.8-3.3-7.9-7.6S12.4.2 16.7.1c1.5 0 3 .4 4.3 1.2C22.2.5 23.6 0 25 0c2.7 0 5 1.5 6.2 3.8.8-.6 1.8-.9 2.8-.9 3.1-.1 5.6 2.4 5.7 5.5.1 3.1-2.4 5.6-5.5 5.7-1.9 0-3.6-.9-4.6-2.4-1.2 1.1-2.7 1.7-4.4 1.7-.8 0-1.7-.1-2.5-.4-1.4 1.6-3.4 2.6-5.7 2.6zM16.8 2c-3.3.1-5.8 2.7-5.8 6 .1 3.3 2.7 5.8 6 5.8 1.9 0 3.6-.9 4.7-2.5l.5-.7.7.4c.7.4 1.5.6 2.3.5 1.5 0 2.9-.8 3.8-2l1-1.4.6 1.6c.5 1.5 2 2.5 3.5 2.4 2.1 0 3.7-1.7 3.7-3.8 0-2.1-1.7-3.7-3.8-3.7-1 0-2 .4-2.7 1.2l-1.2 1.3-.4-1.7c-.5-2.2-2.5-3.7-4.8-3.7-1.2 0-2.4.5-3.3 1.3l-.6.6-.6-.5c-.9-.7-2.2-1.1-3.6-1.1z" />
            <path fill="#419251" class="st130" d="M14.1 16.8c1.4-1 2.3-2.7 2.2-4.5-.1-3.1-2.6-5.5-5.6-5.5C8.1 6.8 6 8.6 5.4 11c-2.4.1-4.3 2.1-4.3 4.5 0 1.8 1.1 3.3 2.7 4 .2 1.9 1.9 3.4 3.9 3.4.5 0 1-.1 1.4-.3.7.7 1.6 1 2.7 1 2.1 0 3.8-1.8 3.8-3.9 0-1.2-.6-2.2-1.5-2.9z" />
            <path fill="#4f7b56" class="st131" d="M15.7 15.2c-1.1-3.3-4.3-5.7-8-5.6-.6 0-1.1.1-1.6.2-.2.4-.4.8-.5 1.3-2.4.1-4.3 2.1-4.3 4.5 0 1.8 1.1 3.3 2.7 4 .2 1.9 1.9 3.4 3.9 3.4.5 0 1-.1 1.4-.3.7.7 1.6 1 2.7 1 .6 0 1.2-.2 1.7-.4 1-.9 1.7-2 2.1-3.3v-.2c0-1.2-.6-2.2-1.5-2.9.6-.6 1-1.1 1.4-1.7z" />
            <path fill="#594942" class="st22" d="M11.6 24.7c-1 0-2-.3-2.9-.9-.4.1-.8.2-1.2.2-2.3 0-4.2-1.5-4.7-3.7-1.7-.9-2.8-2.7-2.8-4.6 0-2.7 1.9-4.9 4.5-5.3.9-2.5 3.3-4.3 6-4.3C14 6 17 8.8 17 12.4c0 1.7-.6 3.4-1.8 4.6.6.8 1 1.8 1 2.9.1 2.6-2 4.8-4.6 4.8zm-2.5-3l.4.4c.6.5 1.3.8 2 .8 1.6 0 2.9-1.4 2.9-3 0-.9-.4-1.7-1.1-2.2l-.9-.7 1-.7c1.2-.9 1.9-2.3 1.9-3.8 0-2.5-2.2-4.6-4.7-4.5-2.1 0-3.9 1.5-4.4 3.5l-.2.7h-.7c-1.9.1-3.4 1.6-3.4 3.5 0 1.4.9 2.6 2.1 3.1l.5.2.1.5c.1 1.5 1.4 2.7 2.9 2.6.4 0 .7-.1 1.1-.2l.5-.2zM22.7 42.5c-2.2 0-4.9-1.6-5-1.7l-.7-.5.4-.8s1-2.1 0-6c-1-4.1-4.1-7.6-4.1-7.7l1.4-1.2c.1.2 3.4 3.9 4.6 8.5.8 3.2.4 5.4.1 6.5.9.5 2.3 1 3.3 1 1.1 0 2.2-.7 2.9-1.1-.4-2.1-1.2-9.1 4.7-14.3l1.2 1.4c-6 5.4-4 13-4 13.1l.2.6-.4.4c-.2 0-2.3 1.7-4.6 1.8z" />
            <path fill="#594942" class="st22" d="M23.3 30.1c-2.4 0-3-3.9-3.1-4.7l1.8-.2c.2 1.5.8 3 1.2 3 .3 0 1.1-.3 1.8-3.8l1.8.3c-.2 1.5-.8 5.4-3.5 5.4z" />
            <path d="M41.6 14.8c-.1-4-3.3-7.1-7.3-7-1.2 0-2.4.3-3.4.9-1.3-1.8-3.5-3-5.9-3-3.2.1-5.9 2.2-6.7 5.1-.7-.3-1.4-.5-2.2-.5-2 0-3.7 1.2-4.4 2.9-1.8.5-3.2 2.1-3.1 4.1 0 1.7 1.1 3.2 2.6 3.8-.1.3-.1.7-.1 1 0 2.3 1.9 4.1 4.2 4.1 1.2 0 2.2-.5 3-1.3.8.8 1.8 1.3 3 1.2 1.8 0 3.4-1.3 3.9-2.9 1.3 1.7 3.4 2.8 5.8 2.8 2.9-.1 5.4-1.9 6.5-4.4 2.4-1.3 4.2-3.9 4.1-6.8z" fill="#7dc68d" />
            <path fill="#fff" class="st15" d="M12.2 14.6c.7-1.7 2.4-2.8 4.3-2.9.8 0 1.5.2 2.2.5.3-.9.2-2 .8-2.7-.6-.2-.3.8-1 .9-1.9 0-3.9.2-4.6 1.9-1.4.4-2.5 1.5-2.9 2.8.4-.3.8-.4 1.2-.5zM36.4 22.6c0 .1-.1.2-.1.2l.4-.4c-.1.1-.2.1-.3.2zM35.2 6.9C34 6.9 32 8.1 31 8.6c-1.3-1.8-2.5-3.7-4.9-3.7C23.3 5 21 6.6 19.9 9c1.2-1.1 2.8-1.7 4.5-1.8 2.4 0 5.1 1.6 6.4 3.4 1-.5 1.8-1.4 3-1.4 3.9-.1 6.6 3 6.7 6.8 0 1.1-.2 2.1-.6 3 1.5-1.3 2.8-3.3 2.3-5.3-.7-2.9-3.2-6.9-7-6.8z" />
            <path d="M25.6 22.1l-.9-.6c-.8.8-2 1.3-3.4 1.4-2.6 0-4.8-1.8-4.8-4.1 0-.3.1-.7.1-1-1.7-.6-3-2-3-3.8 0-1.4.8-2.7 2-3.4-1.5.4-2.7 1.4-3.3 2.7-2.1.5-3.6 2.1-3.6 4.1 0 1.7 1.3 3.2 3 3.8-.1.3-.1.7-.1 1 0 2.3 2.2 4.1 4.8 4.1 1.3 0 2.6-.5 3.4-1.4.9.8 2.1 1.3 3.4 1.2 1.5-.1 1.1-.8 1.7-2.4.1.2 1.1.6 1.2.7l-.5-2.3z" fill="#5bad6f" />
            <path d="M40.4 10.7c.1.5.8 3.6.8 4.2.1 3.1-1.5 2.9-4.2 4.1-1.1 2.7-3.7 4.6-6.8 4.7-1.5 0-2.9-.4-4.1-1.1 0 .2.1.3.1.5V23c1.3 1.7 3.4 2.8 5.8 2.8 2.9-.1 5.4-1.9 6.5-4.4 2.5-1.1 3.4-3.4 3.4-6.3 0-1.9-.6-3.3-1.5-4.4z" fill="#539a59" />
            <path fill="#594942" class="st22" d="M30.9 26.8c-2.1 0-4-.7-5.5-2.1-.9 1.3-2.4 2.2-4.1 2.2-1.1 0-2.1-.3-3-.9-.9.7-1.9 1-3 1-2.8 0-5.1-2.2-5.2-5v-.5c-1.5-.9-2.5-2.5-2.5-4.3 0-2.2 1.3-4.1 3.4-4.9 1-1.9 2.9-3.1 5-3.1.6 0 1.2.1 1.7.2C19 6.5 21.8 4.6 25 4.6c2.4 0 4.6 1 6.2 2.7 1-.4 2-.7 3.1-.7 4.5-.1 8.1 3.5 8.2 7.9.1 3.1-1.7 6-4.4 7.4-1.3 3-4.1 4.8-7.2 4.9zm-6.1-5.7l1.1 1.4c1.2 1.6 3 2.4 5 2.4 2.5 0 4.7-1.6 5.7-3.9l.1-.3.3-.2c2.3-1 3.7-3.3 3.7-5.8-.1-3.4-2.9-6.2-6.3-6.1-1 0-2 .3-2.9.8l-.7.4-.5-.7c-1.2-1.6-3.1-2.6-5.1-2.6-2.7 0-5.1 1.8-5.9 4.4l-.3 1-1-.5c-.6-.3-1.2-.4-1.8-.4-1.5 0-2.9 1-3.6 2.4l-.2.6-.4.1c-1.5.4-2.4 1.7-2.4 3.2 0 1.3.8 2.5 2 2.9l.7.3-.2.8c-.1.2-.1.5-.1.7 0 1.8 1.5 3.2 3.3 3.2.9 0 1.7-.4 2.3-1l.7-.7.7.7c.6.6 1.5 1 2.3 1 1.4 0 2.6-.9 3-2.3l.5-1.8z" />
            <g>
            <path fill="#594942" class="st22" d="M23 15.7v.2s0 3.3 2.7 3.3c2.8 0 2.8-3.2 2.8-3.2v-.2l-5.5-.1z" />
            <path d="M25.7 16.9c-.9 0-1.6.4-1.8 1 .2.6.9 1 1.8 1s1.6-.4 1.8-1c-.2-.5-.9-1-1.8-1z" fill="#f0bbd6" />
            <ellipse fill="#594942" transform="matrix(.9982 -.05968 .05968 .9982 -.777 1.783)" class="st22" cx="29.5" cy="13.9" rx="1.1" ry="1.2" />
            <ellipse fill="#594942" transform="matrix(.9982 -.05968 .05968 .9982 -.801 1.327)" class="st22" cx="21.8" cy="14.1" rx="1.1" ry="1.2" />
            </g>
            </g>
            </svg>