    <svg xmlns="http://www.w3.org/2000/svg" width="60px" viewBox="0 0 50 37.9">
            <g id="header-pets">
            <path d="M7 32c-.7 0-1-.5-1.7-2-.6-1.1-1.6-3-2.3-3.8h-.3c-.9 0-1.7-.8-1.7-1.8 0-.5.2-1 .5-1.4.3-.3.7-.5 1.1-.5l44.7-.3c.9 0 1.7.8 1.7 1.8 0 .5-.2 1-.5 1.4-.3.3-.7.5-1.1.5h-.3c-.9.8-2 3-2.5 4.1-.6 1.3-.8 1.7-1.5 1.7L7 32z" fill="#e4eff9" />
            <path class="st18" d="M47.3 23.2c.4 0 .7.4.7.8 0 .5-.3.8-.7.8h-.7c-1.7 1.2-3.4 5.8-3.7 5.8L7 31c-.3 0-2.2-4.7-3.7-5.7h-.7c-.4 0-.7-.4-.7-.8 0-.5.3-.8.7-.8l44.7-.5m0-2l-44.6.4c-.7 0-1.3.3-1.8.8-.6.5-.9 1.2-.9 2 0 1.5 1.1 2.7 2.5 2.8.7.8 1.5 2.5 1.9 3.2C5.2 32 5.7 33 7 33l36-.3c1.3 0 1.8-1 2.4-2.3.4-.8 1.3-2.7 2-3.6.6 0 1.2-.3 1.7-.8s.8-1.3.8-2.1c.1-1.4-1.1-2.7-2.6-2.7z" />
            <path d="M47.3 23.2l-8.6.1.1 7.4H43c.2 0 2-4.6 3.7-5.8h.7c.4 0 .7-.4.7-.8-.1-.5-.4-.9-.8-.9z" fill="#bdd9ef" />
            <path fill="#f7d25e" class="st386" d="M7.2 22.2v-10c0-1.7 1.6-3 3.6-3h31.1c2 0 3.6 1.4 3.6 3v10H7.2z" />
            <path class="st18" d="M41.9 10.2c1.4 0 2.6.9 2.6 2v9H8.2v-9c0-1.1 1.2-2 2.6-2h31.1m0-2H10.8c-2.5 0-4.6 1.8-4.6 4v11h40.3v-11c0-2.2-2-4-4.6-4z" />
            <path d="M4.5 22.2v-10c0-1.7 1.6-3 3.6-3h31.1c2 0 3.6 1.4 3.6 3v10H4.5z" fill="#fe8" />
            <path class="st18" d="M39.2 10.2c1.4 0 2.6.9 2.6 2v9H5.5v-9c0-1.1 1.2-2 2.6-2h31.1m0-2H8.1c-2.5 0-4.6 1.8-4.6 4v11h40.3v-11c0-2.2-2.1-4-4.6-4z" />
            <path fill="#fff" class="st15" d="M13.3 20.1h-6c-.6 0-1-.4-1-1v-4.8c0-.6.4-1 1-1s1 .4 1 1v3.8h4.9c.6 0 1 .4 1 1s-.4 1-.9 1z" />
            <g>
            <path fill="#f7d25e" class="st386" d="M39.2 10.2H8.1c-.9 0-1.7.3-2.1.9.4-.1.8-.2 1.2-.2h31.1c1.4 0 2.6.9 2.6 2v8.4h.9v-9c0-1.2-1.2-2.1-2.6-2.1z" />
            </g>
            <circle fill="#fff" class="st15" cx="17.1" cy="19.2" r="1.2" />
            <g id="g10_10_" transform="matrix(1.25 0 0 -1.25 0 25)">
            <g id="g12_10_" transform="scale(.1)">
            <path fill="#53413c" id="path14_10_" class="st388" d="M180.5 71.3v-1.2c0-.2.5-20.8 19.3-20.5 18.9.2 18.8 20.8 18.8 21v1.2l-38.1-.5" />
            <path id="path16_10_" d="M199.6 64c-6-.1-11-2.8-12.5-6.4 1.5-3.6 6.6-6.2 12.6-6.1 6 .1 11 2.8 12.5 6.4-1.5 3.5-6.6 6.1-12.6 6.1" fill="#f3acd9" />
            <path fill="#53413c" id="path18_10_" class="st388" d="M234.3 80.4c0-4.2-3.4-7.6-7.6-7.6-4.2 0-7.6 3.4-7.6 7.6 0 4.2 3.4 7.6 7.6 7.6 4.2 0 7.6-3.4 7.6-7.6" />
            <path fill="#53413c" id="path20_10_" class="st388" d="M183.4 82c0-4.2-3.4-7.6-7.6-7.6-4.2 0-7.6 3.4-7.6 7.6s3.4 7.6 7.6 7.6c4.2 0 7.6-3.4 7.6-7.6" />
            </g>
            </g>
            <g>
            <path d="M35.4 36.9c-1.3 0-2-1.3-2.2-1.8-.1-.2-.1-.5-.1-.8 0 0 .1-.4.3-1.1.9-3.5 3.7-14 4.7-17.2.3-1.1.8-2.9 1.3-4.9 2.7-9.8 3-10.1 4-10.1h.3c1.3.4 2.3 2 3 3.4 1.6 3.3.3 7.2-.8 9.9-.6 1.5-1.4 2.6-2.2 3.7-.8 1.2-1.6 2.3-2.1 3.6-.1.2-.3 1.1-.4 2-1.9 8.6-3.4 13.3-5.8 13.3z" fill-rule="evenodd" clip-rule="evenodd" fill="#c3d8e0" />
            <path fill="#5a4a43" class="st18" d="M43.4 2c1 .3 1.9 2 2.3 2.9 1.4 2.9.2 6.5-.9 9-1.2 2.9-3.4 4.6-4.4 7.4-.4 1.3-2.5 14.6-5.1 14.6-.4 0-.9-.4-1.3-1.2 0-.1 3.8-14.5 5-18.3C40.2 12.8 42.8 2 43.4 2m0-2c-1.8 0-2.3 1.7-3.2 4.5-.6 1.9-1.2 4.3-1.8 6.4-.5 1.9-1 3.8-1.3 4.8-1 3.2-3.8 13.8-4.7 17.3-.2.6-.2.9-.3 1-.1.5-.1 1 .2 1.5.8 1.5 1.8 2.3 3.1 2.3 3.1 0 4.6-4.5 6.6-14.1.2-.8.3-1.6.4-1.8.4-1.2 1.1-2.2 2-3.4.8-1.1 1.7-2.4 2.4-3.9 1.2-2.8 2.6-7 .8-10.7C46.8 2.2 45.7.5 44 0h-.6z" />
            <g>
            <path d="M34.7 35.1c0-.1 3.8-14.5 5-18.3 1.1-3.6 3.7-14.6 4.4-14.4.1 0 .2.1.4.2-.3-.3-.6-.5-.9-.6-.7-.2-3.3 10.8-4.4 14.4-1.2 3.8-5 18.2-5 18.3.3.6.7 1 1 1.1-.2-.2-.4-.4-.5-.7z" fill-rule="evenodd" clip-rule="evenodd" fill="#fff" />
            </g>
            <g>
            <path d="M45.8 4.8c-.5-.9-1.3-2.6-2.3-2.9-.1 0-.1.1-.2.2.8.6 1.5 1.8 1.8 2.6 1.4 2.9.2 6.5-.9 9-1.2 2.9-3.4 4.6-4.4 7.4-.4 1.2-2.4 13.5-4.8 14.5 2.8 1.5 5-13.1 5.5-14.5 1-2.9 3.2-4.6 4.4-7.4 1.1-2.4 2.3-6 .9-8.9z" fill-rule="evenodd" clip-rule="evenodd" fill="#8dbdcc" />
            </g>
            </g>
            </g>
            </svg>