<svg xmlns="http://www.w3.org/2000/svg" viewBox="0 0 100 100">
			<path fill="#f3e57b" d="M82.57,47.78a8.85,8.85,0,0,1,6.65-10.61L86.11,23.59,4,42.4,14.15,86.82,96.28,68,93.18,54.43A8.85,8.85,0,0,1,82.57,47.78Z"></path><polygon fill="#fdbe28" points="6.4 41.85 35.52 16.64 83.25 23.25 6.4 41.85"></polygon><rect fill="#fff" x="8.88" y="41.37" width="4.36" height="45.57" transform="translate(-14.04 4.09) rotate(-12.9)"></rect><rect fill="#fff" x="43.35" y="-5.99" width="4.36" height="82.22" transform="translate(69.6 -17.1) rotate(77.1)"></rect><path fill="#5a4a43" d="M98.51,69.52l-86,19.69L1.49,41l86-19.69,4,17.41-1.91.44a6.89,6.89,0,1,0,3.08,13.43l1.91-.44Zm-83,15L93.8,66.56l-2.27-9.92A10.82,10.82,0,0,1,86.78,35.9L84.51,26,6.2,43.91Z"></path><polygon fill="#5a4a43" points="85.71 25.57 36.1 18.7 5.09 43.95 2.61 40.91 34.95 14.58 86.25 21.68 85.71 25.57"></polygon><circle fill="#fdbe28" cx="17.38" cy="53.76" r="1.65" transform="translate(-11.56 5.24) rotate(-12.9)"></circle><circle fill="#fdbe28" cx="25.18" cy="55.02" r="2.71" transform="translate(-11.65 7.01) rotate(-12.9)"></circle><circle fill="#fdbe28" cx="31.67" cy="47.69" r="2.32" transform="translate(-9.85 8.27) rotate(-12.9)"></circle><path fill="#594942" d="M44.17,55.66l.11.44c0,.08,1.91,7.56,8.79,5.9s5.15-9.18,5.13-9.26l-.11-.44Z"></path><path fill="#f0bbd6" d="M51.76,56.76c-2.2.53-3.81,1.94-4,3.38.85,1.18,2.93,1.7,5.12,1.17s3.81-1.94,4-3.38C56,56.75,54,56.23,51.76,56.76Z"></path><circle fill="#594942" cx="59.07" cy="48.46" r="2.86" transform="translate(-9.33 14.41) rotate(-12.9)"></circle><circle fill="#594942" cx="41.58" cy="52.46" r="2.86" transform="translate(-10.66 10.61) rotate(-12.9)"></circle></svg>