    <svg xmlns="http://www.w3.org/2000/svg" width="60px" viewBox="0 0 47.9 36.8">
            <g id="header-pets">
            <path d="M42.1 23.3c0-2.7 2.2-4.8 4.8-4.8V11H1.1v24.7h45.7v-7.6c-2.6 0-4.7-2.1-4.7-4.8z" fill="#f3e57b" />
            <path fill="#fdbe28" class="st17" d="M2.5 11L21 1.2l24.4 9.2z" />
            <path fill="#fff" class="st15" d="M1.1 11h2.4v24.7H1.1z" />
            <path fill="#fff" transform="rotate(90 24.012 12.155)" class="st15" d="M22.8-10.2h2.4v44.6h-2.4z" />
            <path fill="#5a4a43" class="st18" d="M47.9 36.8H0V9.9h47.9v9.7h-1.1c-2.1 0-3.7 1.7-3.7 3.7s1.7 3.7 3.7 3.7h1.1v9.8zM2.1 34.6h43.6v-5.5c-2.7-.5-4.8-2.9-4.8-5.8s2.1-5.3 4.8-5.8V12H2.1v22.6z" />
            <path fill="#5a4a43" class="st18" d="M46.4 12L21 2.3 1.5 11.9.6 10 20.9 0l26.3 10z" />
            <circle fill="#fdbe28" class="st17" cx="6.9" cy="18.6" r=".9" />
            <circle fill="#fdbe28" class="st17" cx="10.8" cy="20.2" r="1.5" />
            <circle fill="#fdbe28" class="st17" cx="15.2" cy="17.1" r="1.3" />
            <path fill="#594942" class="st22" d="M20.8 22.9v.2s.1 4.2 3.9 4.2 3.8-4.2 3.8-4.3v-.2l-7.7.1z" />
            <path d="M24.7 24.4c-1.2 0-2.2.6-2.5 1.3.3.7 1.3 1.3 2.6 1.2 1.2 0 2.2-.6 2.5-1.3-.4-.7-1.4-1.3-2.6-1.2z" fill="#f0bbd6" />
            <g>
            <circle fill="#594942" class="st22" cx="29.6" cy="20.9" r="1.5" />
            <circle fill="#594942" class="st22" cx="19.8" cy="20.9" r="1.5" />
            </g>
            </g>
            </svg>