    <svg xmlns="http://www.w3.org/2000/svg" width="60px" viewBox="0 0 52.6 47.3">
            <g id="header-dairyeggs">
            <path fill="#f3ede4" class="st327" d="M32 24.2c2.4 8.8-2.4 17.7-10.6 19.9C13.2 46.3 4.6 41 2.2 32.2s.3-22.4 8.5-24.6S29.6 15.4 32 24.2z" />
            <path fill="#e5ded2" class="st328" d="M37.5 24.5c2.1 7.7-2.2 15.6-9.7 17.7-7.4 2-15.1-2.6-17.2-10.4S11 12 18.4 10s17 6.8 19.1 14.5z" />
            <path fill="#fff" transform="rotate(-15.138 17.88 13.124)" class="st15" d="M16.8 11.8h2.1v2.7h-2.1z" />
            <ellipse fill="#fff" transform="rotate(-52.914 17.577 12.016)" class="st15" cx="17.6" cy="12" rx="1.1" ry="1.1" />
            <ellipse fill="#fff" transform="rotate(-52.914 18.231 14.436)" class="st15" cx="18.2" cy="14.4" rx="1.1" ry="1.1" />
            <g>
            <path fill="#fff" transform="rotate(-15.138 20.179 21.617)" class="st15" d="M19.1 18.2h2.1v6.9h-2.1z" />
            <ellipse fill="#fff" transform="rotate(-52.914 19.275 18.292)" class="st15" cx="19.3" cy="18.3" rx="1.1" ry="1.1" />
            <ellipse fill="#fff" transform="rotate(-52.914 21.074 24.939)" class="st15" cx="21.1" cy="24.9" rx="1.1" ry="1.1" />
            </g>
            <path fill="#594942" class="st22" d="M17.5 45.4c-3 0-6-.9-8.6-2.5-3.9-2.4-6.7-6.3-8-10.8-1.3-4.7-1.2-10.5.2-15.5C2.8 10.8 6 7 10.2 5.9c4.2-1.1 9.3.5 14 4.4 4.3 3.6 7.6 8.5 8.9 13.1 1.2 4.6.7 9.3-1.4 13.3-2.2 4.1-5.7 7-10 8.1-1.4.4-2.8.6-4.2.6zM13 8c-.7 0-1.4.1-2.1.3-4.4 1.2-6.5 6.2-7.3 9-1.3 4.5-1.4 9.9-.2 14.1 1.1 3.9 3.5 7.2 6.8 9.3 3.3 2.1 7.2 2.6 10.8 1.7 3.6-1 6.6-3.4 8.5-6.9 1.8-3.5 2.3-7.6 1.2-11.5C28.6 16.4 20 8 13 8z" />
            <g>
            <path fill="#594942" class="st22" d="M9.2 23.5v.2s.7 3.7 4.1 3.1c3.4-.6 2.7-4.3 2.7-4.3v-.2l-6.8 1.2z" />
            <path fill="#f0bbd6" class="st23" d="M12.8 24.2c-1.1.2-1.9.8-2 1.5.4.6 1.4.9 2.4.7 1.1-.2 1.9-.8 2-1.5-.3-.6-1.3-.9-2.4-.7z" />
            <ellipse fill="#594942" transform="rotate(-10.085 17.139 20.464)" class="st22" cx="17.1" cy="20.5" rx="1.4" ry="1.4" />
            <ellipse fill="#594942" transform="rotate(-10.085 8.552 21.693)" class="st22" cx="8.5" cy="21.7" rx="1.4" ry="1.4" />
            </g>
            <g>
            <path fill="#f3ede4" class="st327" d="M51.4 27.2c0 10.7-8.1 19.4-18.1 19.4s-18.1-8.7-18.1-19.4S22.3 1.9 32.3 1.9s19.1 14.7 19.1 25.3z" />
            <path fill="#fff" class="st15" d="M23.6 10.8h2.5V14h-2.5z" />
            <ellipse fill="#fff" transform="rotate(-37.768 24.816 10.067)" class="st15" cx="24.8" cy="10.1" rx="1.3" ry="1.3" />
            <ellipse fill="#fff" transform="rotate(-37.768 24.816 14.012)" class="st15" cx="24.8" cy="14" rx="1.3" ry="1.3" />
            <path fill="#e5ded2" class="st328" d="M36.9 41.9c-10 0-18.1-8.7-18.1-19.4 0-6.4 2.6-14.3 6.8-19.6-6.4 4.5-10.5 15-10.5 23.1 0 10.7 8.1 19.4 18.1 19.4 5.5 0 10.5-2.7 13.8-6.8-2.8 2.1-6.3 3.3-10.1 3.3z" />
            <path fill="#594942" class="st22" d="M33.3 47.3c-10.7 0-19.4-9.2-19.4-20.6 0-5.7 1.9-12.2 5-17.4 3.6-6 8.4-9.3 13.4-9.3 10.5 0 20.3 15 20.3 26.7 0 11.3-8.6 20.6-19.3 20.6zm-1-44.8c-9.2 0-15.9 14.4-15.9 24.1 0 10 7.6 18.1 16.8 18.1S50 36.6 50 26.6c.1-10.3-8.7-24.1-17.7-24.1z" />
            </g>
            <g>
            <path fill="#594942" class="st22" d="M25.6 18.8v.2s.1 3.8 3.5 3.7c3.4 0 3.4-3.8 3.4-3.8v-.2l-6.9.1z" />
            <path fill="#f0bbd6" class="st23" d="M29.1 20.2c-1.1 0-2 .5-2.3 1.2.3.6 1.2 1.1 2.3 1.1 1.1 0 2-.5 2.3-1.2-.3-.7-1.2-1.1-2.3-1.1z" />
            <circle fill="#594942"  class="st22" cx="34" cy="17.2" r="1.4" />
            <circle fill="#594942" class="st22" cx="25.3" cy="16.9" r="1.4" />
            </g>
            </g>
            </svg>