    <svg xmlns="http://www.w3.org/2000/svg" width="60px" viewBox="0 0 46.8 48.8">
            <g id="header-pets">
            <path fill="#f3ede4" class="st327" d="M32.8 13.4s.4-5.3-5.2-4.6c0 0-.8-6.1-8.1-4.4 0 0 1.1 3.8-1.8 4.2-4 .5-6 0-6.2 3.6 0 0-5.2.3-5.4 4.2-.1 4 3.9 4.3 12.8 4.4s13.5.1 13.5.1 5.2-.1 5.2-3.5-1.9-4-4.8-4z" />
            <path d="M12.5 16.7c.2-4.4 6-4.7 6-4.7.2-4.1 2.4-3.5 6.9-4.1.8-.1 1.4-.5 1.7-1C26 5.5 24 4.3 20.2 5.2c0 0 1.1 3.8-1.8 4.2-4 .5-6 0-6.2 3.6 0 0-5.2.3-5.4 4.2-.2 3.9 3.8 4.3 12.7 4.3h7.2c-9.9 0-14.4-.3-14.2-4.8z" fill="#e9e1d2" />
            <path fill="#fff" class="st15" d="M26.1 10.6c5.6-.6 5.2 4.7 5.2 4.7 2.9 0 4.8.6 4.8 4v.1c.4-.5.8-1.1.8-1.8 0-3.2-1.7-3.7-4.5-3.8 0 0 .4-5-4.8-4.4 0 0-.7-5.8-7.5-4.1 0 0 .1.3.1.7 5.3-.4 5.9 4.6 5.9 4.6z" />
            <path fill="#594942" class="st22" d="M18.9 21.8c-6.6 0-10.8-.2-12.6-2.1-.8-.8-1.1-1.8-1.1-3.2.1-3.3 3.3-4.7 5.4-5 .4-3.1 2.5-3.3 5.1-3.5.6-.1 1.2-.1 1.8-.2.5-.1.8-.3.9-.5.5-.7.2-2.1.1-2.5l-.3-1 1-.2c2.7-.6 4.9-.4 6.5.8 1.5 1 2.2 2.5 2.5 3.5 1.6 0 2.9.4 3.9 1.3 1.1 1 1.4 2.4 1.5 3.4 2.5.2 4.9 1.1 4.8 4.9 0 3.4-4 4.4-6.2 4.4l-13.3-.1zm1.8-16.6c.1.9.1 2.1-.6 3.1-.5.7-1.3 1.2-2.3 1.3-.7.1-1.3.2-1.9.2-2.8.3-3.3.3-3.4 2.5v.9h-.9c-.2 0-4.3.3-4.4 3.3 0 1 .3 1.5.5 1.8 1.3 1.4 5.5 1.5 11.2 1.5l13.5.1s4.2-.1 4.2-2.5c0-2.3-.8-3-3.8-3h-1.1l.1-1s.1-1.8-1-2.9c-.7-.6-1.7-.9-3.1-.7l-1 .1-.1-1s-.3-2-1.9-3c-1-.7-2.4-.9-4-.7z" />
            <path fill="#d1e2f4" class="st102" d="M41.1 22.2L2.5 22c-.8 0-1.4-.7-1.4-1.4v-2.1c0-.8.7-1.4 1.4-1.4l38.6.3c.8 0 1.4.7 1.4 1.4v2.1c.1.7-.6 1.3-1.4 1.3z" />
            <path fill="#719cd2" class="st63" d="M6.7 42.8l1.8 3.4c.2.7.6 1.3 1.3 1.3l22.8.1c.7 0 1.1-.5 1.3-1.3l1.9-3.4-29.1-.1z" />
            <path fill="#527da8" d="M8.2 43.3l1.6 4.2H13l-.6-4.2z" />
            <path fill="#d1e2f4" class="st102" d="M4.6 21.5L4.4 42c0 .7.6 1.3 1.3 1.3l31.9.2c.7 0 1.3-.6 1.3-1.3l.1-20.5-34.4-.2z" />
            <path fill="#abc9e3" class="st367" d="M5.4 21.5L5.3 42c0 .7.1 1.3.2 1.3h5.3c.1 0 .2-.6.2-1.3l.1-20.5H5.4z" />
            <path fill="#abc9e3" class="st367" d="M1.2 17v4.3c0 .1.2.2.4.2l9.3.1c.2 0 .4-.1.4-.2v-4.3L1.2 17z" />
            <path fill="#719cd2" transform="matrix(1 .00649 -.00649 1 .202 -.137)" class="st63" d="M3.6 25.8h35.3v10.6H3.6z" />
            <path fill="#fff" transform="matrix(1 .00649 -.00649 1 .21 -.244)" class="st15" d="M36.6 21.7h2.2V43h-2.2z" />
            <path fill="#fff" transform="matrix(.00649 -1 1 .00649 20.16 59.215)" class="st15" d="M37.7 17.4h4.4v4.1h-4.4z" />
            <path fill="#5a4a43" class="st18" d="M37.5 44.6l-31.9-.2c-1.4 0-2.4-1.1-2.4-2.4l.1-20.5h2.3L5.4 42c0 .1.1.2.2.2l31.9.2c.1 0 .2-.1.2-.2l.1-20.5h2.3L40 42.2c0 1.4-1.2 2.4-2.5 2.4z" />
            <path fill="#5a4a43" class="st18" d="M33 48.8l-22.8-.1c-.8 0-1.8-.4-2.4-2L6 43.4l2-1L9.9 46c.1.4.2.5.2.5l22.8.1s.1-.1.2-.5l.1-.2 1.9-3.4 2 1.1-1.8 3.3c-.1.5-.6 1.9-2.3 1.9zM41.3 23.3l-38.9-.2C1.1 23 0 22 0 20.7v-2.4C0 17 1.1 15.9 2.4 16l38.9.3c1.3 0 2.4 1.1 2.4 2.4v2.4c0 1.2-1.1 2.2-2.4 2.2zM2.4 18c-.1 0-.2.1-.2.2v2.4c0 .1.1.2.2.2l38.9.3c.1 0 .2-.1.2-.2v-2.4c0-.1-.1-.2-.2-.2L2.4 18z" />
            <g>
            <path fill="#f3ede4" class="st327" d="M45.6 3.4c0-1.3-1-2.3-2.3-2.3-1 0-2.2 1.5-2.2 1.5l-7.4 13.9h2.6L45 5.4c.4-.8.6-1.3.6-2z" />
            <path fill="#594942" class="st22" d="M36.8 17.7h-5L40.2 2c.4-.5 1.7-2 3.1-2 1.9 0 3.5 1.6 3.5 3.5 0 1-.3 1.7-.9 2.6l-.1.1-9 11.5zm-1.3-2.3h.1L44 4.8c.4-.7.5-1 .5-1.4 0-.7-.5-1.2-1.2-1.2-.2 0-.8.5-1.2 1l-6.6 12.2z" />
            </g>
            <g id="g10_1_" transform="matrix(1.25 0 0 -1.25 0 25)">
            <g id="g12_1_" transform="scale(.1)">
            <path fill="#53413c" id="path14_1_" class="st388" d="M148.2-43.6v-1.6c0-.3.4-26.8 25.1-26.7 24.7.1 24.8 26.7 24.8 26.9v1.6l-49.9-.2" />
            <path id="path16_1_" d="M173.1-53.3c-7.9 0-14.5-3.5-16.4-8.1 1.9-4.6 8.6-8 16.5-8s14.5 3.5 16.4 8.1c-2 4.6-8.6 8-16.5 8" fill="#f3acd9" />
            <path fill="#53413c" id="path18_1_" class="st388" d="M218.7-32.4c0-5.4-4.5-9.8-10-9.7-5.5 0-9.9 4.4-9.9 9.9 0 5.4 4.5 9.8 10 9.7 5.5-.1 10-4.5 9.9-9.9" />
            <path fill="#53413c" id="path20_1_" class="st388" d="M152.1-29.9c0-5.4-4.5-9.8-10-9.7-5.5 0-9.9 4.5-9.9 9.9s4.5 9.8 10 9.8c5.5-.2 9.9-4.6 9.9-10" />
            </g>
            </g>
            <g>
            <path d="M33.4 45.8c27.1-10.9-16.8-23.6 0 0z" fill-rule="evenodd" clip-rule="evenodd" fill="#ef5350" />
            <path class="st18" d="M34.2 32.4c6.4-.2 15.3 6.9-.8 13.3-6.8-9.6-3.6-13.1.8-13.3m-.1-2.2c-2.9.1-5.2 1.4-6.2 3.5-1.6 3.2-.4 7.7 3.7 13.4.5.6 1.2 1 1.9 1 .3 0 .5-.1.8-.2 9.7-3.9 11-8.2 10.3-11.1-.9-4.2-6.1-6.8-10.5-6.6z" />
            <path fill-rule="evenodd" clip-rule="evenodd" fill="#7c4847" class="st394" d="M40.8 38.3c.2-.4.3-.8.1-.9-.2-.1-.5.1-.7.5-.2.4-.3.8-.1.9.2.1.5-.1.7-.5zM39.7 36.4c.2-.4.3-.8.1-.9-.2-.1-.5.1-.7.5-.2.4-.3.8-.1.9.1.2.4-.1.7-.5zM38.2 39.8c.2-.4.3-.8.1-.9-.2-.1-.5.1-.7.5-.2.4-.3.8-.1.9.1.2.5-.1.7-.5z" />
            <path d="M32.1 34.8h.1c.3.2.4.5.2.8-1.1 1.9-.2 3.3 1.3 5.5.2.3.1.6-.1.8-.3.2-.6.1-.8-.1-1.3-1.9-2.9-4-1.4-6.7.2-.2.5-.3.7-.3z" fill="#f7cbd6" />
            <g>
            <path d="M38.7 35c-.1 0-.2 0-.4-.1L36 34h-2.6c-.4 0-.7-.2-.9-.6-.2-.3-.1-.7.1-1l.1-.1-1.1-.6c-.4-.2-.6-.7-.4-1.2.1-.4.5-.7.9-.7h.1l2.7.4 1.3-.6c.1-.1.3-.1.4-.1.3 0 .5.1.7.3l.9 1 2.7.6c.5.1.8.5.8 1s-.4.9-.8.9l-1.2.2v.1c.1.4 0 .7-.3 1-.2.3-.4.4-.7.4z" fill="#66bb6a" />
            <path class="st18" d="M36.6 30.6l1.2 1.2 3 .7-2.3.3.3 1.2-2.6-1h-2.8l.7-1-2-1.2 3 .4 1.5-.6m0-2c-.3 0-.6.1-.9.2l-1 .5-2.4-.3H32c-.8 0-1.6.5-1.9 1.4-.3.9.1 1.9.9 2.4l.3.2c0 .4 0 .8.2 1.1.3.7 1 1.1 1.8 1.1h2.4l2.2.9c.2.1.5.1.7.1.5 0 1-.2 1.3-.5.3-.3.5-.6.6-1l.4-.1c.9-.1 1.7-.9 1.7-1.9s-.6-1.8-1.5-2l-2.3-.7-.7-.8c-.4-.4-.9-.6-1.5-.6z" />
            </g>
            </g>
            </g>
            </svg>