    <svg xmlns="http://www.w3.org/2000/svg" width="60px" viewBox="0 0 47.05 60.32">
            <path fill="#d1e2f4" d="M7.07 1.12h33.91v6.65H7.07z" class="cls-1"/>
            <path fill="#e7eef7" d="M6.21 8.51l-4.98 8.25 33.3.62 5.56-8.88-33.88.01z"/>
            <path fill="#719cd2" d="M39.97 9.6l-5.44 6.61 10.96.55-5.52-7.16z" class="cls-3"/>
            <path fill="#fff" d="M1.22 17.38h33.31V59.1H1.22z" class="cls-4"/>
            <path fill="#d1e2f4" d="M4.47 17.38h30.06V59.1H4.47z" class="cls-1"/>
            <path fill="#719cd2" d="M34.7 17.38h10.79V59.1H34.7z" class="cls-3"/>
            <path fill="#594942" d="M42.1 9.62H6V0h36.1zM8.18 7.38h31.68V2.23H8.18z" class="cls-5"/>
            <path fill="#594942" d="M2.25 18.05L.2 16.7l6.21-9.42h35.3l5.19 9.51-2.15 1.17-4.49-8.23H7.73l-5.48 8.32z" class="cls-5"/>
            <path fill="#594942" d="M47 60.32H0V16.15h47zM2.45 57.87H44.6V18.6H2.45z" class="cls-5"/>
            <path fill="#594942" d="M35.76 59.09h-2.45V15.76l6.73-8.04 1.88 1.57-6.16 7.36v42.44z" class="cls-5"/>
            <path fill="#fff" d="M24.52 29.38a3.89 3.89 0 0 0 3-3.84c-3.41-.82-4.44.82-4.71 1.49a18.23 18.23 0 0 0-10.94.26s-.58-2.76-4.8-1.75a3.32 3.32 0 0 0 2.77 4S8 40.22 8.16 42s2 3.42 5.89 3.85a36.3 36.3 0 0 0 10.62-.73c.95-.36 2.26-.63 1.82-5.09a61.74 61.74 0 0 0-1.97-10.65z" class="cls-4"/>
            <path fill="#594942" d="M16.64 47a24.71 24.71 0 0 1-2.69-.13c-5.81-.65-6.66-3.54-6.76-4.75-.13-1.64 1.1-9.26 1.54-11.95a4.18 4.18 0 0 1-2.61-4.86l.14-.59.59-.14a5.67 5.67 0 0 1 4.44.4 3.59 3.59 0 0 1 1.1 1.08 19.13 19.13 0 0 1 10-.17c.69-.93 2.23-2.08 5.42-1.31l.7.17v.72A4.8 4.8 0 0 1 25.7 30a64.31 64.31 0 0 1 1.76 10c.42 4.17-.58 5.41-2.32 6.06h-.12a35.09 35.09 0 0 1-8.38.94zM8 26.35c0 .7.38 1.77 2.09 2.2l.88.22-.15.9C10.11 33.77 9 40.73 9.14 42c.12 1.52 2 2.62 5 3a35.84 35.84 0 0 0 10.16-.67l.14-.05c.66-.25 1.4-.52 1.05-4a60.86 60.86 0 0 0-1.94-10.53l-.27-.93.93-.28a3 3 0 0 0 2.22-2.11c-2-.25-2.56.63-2.74 1.06l-.33.8-.81-.29a17.4 17.4 0 0 0-10.33.23l-1.07.41-.24-1.13c-.04-.18-.46-1.51-2.91-1.16z" class="cls-5"/>
            <path fill="#594942" d="M17.53 26.3s-1.45 3.35 1.39 4.63a3.22 3.22 0 0 0-1.39 3.59c.48 2.63 5.36 5 8.61 2.63l-1.62-7.78s2.65 0 3-3.84c0 0-2.7-1.57-4.71 1.49z" class="cls-5"/>
            <rect width="11.68" height="5.94" x="11.46" y="39.64" fill="#f3bcd1" rx="2.97" ry="2.97"/>
            <path d="M20.16 46.57h-5.73a4 4 0 0 1 0-7.91h5.73a4 4 0 1 1 0 7.91zm-5.73-5.94a2 2 0 1 0 0 4h5.73a2 2 0 1 0 0-4z" class="cls-5"/>
            <circle fill="#594942" cx="13.99" cy="34.44" r="1.23" class="cls-5"/>
            <circle fill="#fff" cx="21.06" cy="34.09" r="1.23" class="cls-4"/>
            </svg>