<svg xmlns="http://www.w3.org/2000/svg" viewBox="0 0 222.7 194.7">
            <g id="flyer">
            <g>
            <path fill="#FFFFFF" d="M126.6,7.4c0,0-15.5,102.9,58.5,150.8L71.2,184.7c0,0-83-44-59.1-153.3L126.6,7.4z"/>
            <path fill="#A1ABB5" d="M71,185.8l-0.3-0.2c-0.2-0.1-21.2-11.4-38.8-36C15.5,127-1.3,88.1,11,31.2l0.1-0.6L127.8,6.1l-0.2,1.4 c0,0.3-3.8,26,1.5,57.2c4.9,28.7,18.6,68.1,56.5,92.7l2,1.3L71,185.8z M12.9,32.3C0.9,88,17.4,126.2,33.4,148.4 c16.2,22.6,35.2,33.7,37.9,35.3l111.3-25.9c-37-25-50.6-64.1-55.5-92.8c-4.6-27.3-2.4-50.5-1.7-56.3L12.9,32.3z"/>
            </g>
            <g>
            <path fill="#FFFFFF" d="M63.1,86.6c-3.8-15.6-5.6-33.1-4.4-52.8l-36.3,7.6C17.8,62.6,18,80.9,21,96.5L63.1,86.6z"/>
            <g>
            <path fill="#DFF0EF" d="M90.4,144.4L90.4,144.4c-3.7-5.4-10.1-14.9-12.7-19.7l-41.6,9.7c3.1,4.9,10.6,14,15.4,19.1l0,0 c10.9,10.8,20.2,15.8,20.2,15.8l33.5-7.8C100.4,156.6,95.4,150.9,90.4,144.4z"/>
            <path fill="#CAD1D6" d="M71.7,169.9l-0.2-0.1c-0.1,0-8.5-4.6-18.5-14.1l0.1,0.3l-2-2.1c-4.8-5.1-12.3-14.2-15.4-19.2l-0.4-0.6 l42.6-10l0.2,0.3c2.2,4.1,7.2,11.5,10.8,17l1.5,2.3l0.3,0.4c4.5,6,9.5,11.8,14.8,17.1l0.6,0.6L71.7,169.9z M51.7,152.9l0.3,0.3 c9.9,9.9,18.7,14.9,19.9,15.6l32.4-7.6c-4.8-4.9-9.4-10.2-13.6-15.7l0,0.2l-2.5-3.7c-3.5-5.3-8.3-12.5-10.6-16.7L37,134.8 C40.3,139.7,47.1,148,51.7,152.9z"/>
            </g>
            <g>
            <path fill="#DFF0EF" d="M65.1,93.9l-42.3,9.9c2.3,8.7,5.6,16.5,9.2,23.4l42.1-9.9C70.6,110.2,67.6,102.4,65.1,93.9z"/>
            <path fill="#CAD1D6" d="M31.7,127.8l-0.2-0.3c-4-7.4-7.1-15.3-9.3-23.5l-0.1-0.5l0.5-0.1l42.8-10l0.1,0.5 c2.3,7.9,5.3,15.8,9,23.4l0.3,0.6l-0.6,0.1L31.7,127.8z M23.4,104.2c2.1,7.8,5.1,15.4,8.9,22.5l41.1-9.6 c-3.5-7.3-6.4-14.9-8.6-22.5L23.4,104.2z"/>
            </g>
            </g>
            <g>
            <g>
            <path fill="#DFF0EF" d="M120,73c-0.8-4-1.4-7.9-1.8-11.6c-16.6,4-33.1,7.9-48.7,11.6c0.7,3.9,1.6,7.8,2.5,11.4 C87.4,80.8,103.6,76.9,120,73z"/>
            <path fill="#CAD1D6" d="M71.6,85l-0.1-0.5c-1-3.7-1.8-7.5-2.6-11.5l-0.1-0.5l0.5-0.1c15.6-3.7,32-7.6,48.7-11.6l0.5-0.1l0.1,0.6 c0.5,3.9,1.1,7.8,1.8,11.6l0.1,0.5l-0.5,0.1c-16.3,3.9-32.6,7.7-48,11.4L71.6,85z M70,73.4c0.7,3.6,1.5,7.1,2.3,10.5 c15.1-3.6,31-7.4,47-11.2c-0.7-3.5-1.2-7.1-1.7-10.6C101.4,65.9,85.3,69.7,70,73.4z"/>
            </g>
            <g>
            <path fill="#DFF0EF" d="M116,159l50.9-11.8c-13.4-8.7-23.3-19.6-30.6-31.2L90,126.8C98.2,140.2,107.5,150.9,116,159z"/>
            <path fill="#CAD1D6" d="M115.8,159.6l-0.2-0.2c-10-9.7-18.8-20.5-26-32.3l-0.4-0.6l47.3-11.1l0.2,0.3 c7.9,12.6,18.1,23.1,30.4,31.1l1,0.6L115.8,159.6z M90.8,127.1c7.1,11.4,15.6,22,25.3,31.4l49.5-11.5 c-11.9-7.9-21.8-18.1-29.5-30.4L90.8,127.1z"/>
            </g>
            <g>
            <path fill="#DFF0EF" d="M121.7,80.7L74.1,91.8c3.6,11.3,8.1,21.5,13.3,30.5l46.2-10.8C128,101.4,124.2,90.8,121.7,80.7z"/>
            <path fill="#CAD1D6" d="M87.1,122.9l-0.2-0.3c-5.5-9.7-10-20-13.3-30.6l-0.2-0.5L122,80.1l0.1,0.5c2.8,11.2,6.8,21.5,11.9,30.7 l0.3,0.6L87.1,122.9z M74.8,92.2c3.2,10.2,7.6,20.2,12.9,29.6l45.2-10.6c-4.9-9-8.8-19-11.6-29.9L74.8,92.2z"/>
            </g>
            <path fill="#576378" d="M67.2,56c0.3,4,0.8,7.9,1.4,11.7c15.7-3.7,32.3-7.7,49-11.7c-0.4-4.2-0.6-8.2-0.7-11.9 C99.9,48.2,83.1,52.2,67.2,56z"/>
            <path fill="#576378" d="M116.9,36.5c0.2-9.3,1.1-15.2,1.1-15.2L66.7,32.1c-0.3,5.6-0.2,11.1,0,16.4 C82.7,44.6,99.7,40.6,116.9,36.5z"/>
            </g>
            <g>
            <g id="CbtAqM.tif_1_">
            <g>
            <g>
            <path fill="#63C7C8" d="M47.6,44.7c0,0.2,0.1,0.4,0.1,0.5c0.7,4.9,1.5,9.8,2.2,14.7c0.1,0.4,0.1,0.7,0.3,1 c0.4,0.6,1.2,0.8,1.8,0.6c0.7-0.3,1.1-0.9,1-1.7c-0.4-2.4-0.7-4.8-1.1-7.3c-0.4-2.8-0.8-5.5-1.2-8.3c0-0.2,0-0.3-0.1-0.6 c0.3,0.2,0.5,0.3,0.7,0.4c2.2,1.2,4.4,2.5,6.5,3.7c1.3,0.8,2.5,0,2.6-1.4c0.1-2.2,0.3-4.4,0.5-6.7c0-0.1,0-0.2,0.1-0.4 c0.8,0,1.7-0.1,2.5-0.1c1.3,0,2.6-0.1,3.9-0.1c0.4,0,0.8,0.1,1.1,0.2c5.1,2.6,10.2,5.3,15.4,8c0.1,0.1,0.2,0.1,0.4,0.2 c-1.6,3.4-3.3,6.8-4.9,10.3c-1-0.4-2-0.8-2.9-1.2c-1.6-0.6-3.2-1.3-4.7-1.9c-1.1-0.4-2.1,0.1-2.3,1.2c0,0.2,0,0.5,0.1,0.7 c2.2,14.8,2.9,19.6,5.2,34.4c0,0.2,0.1,0.4,0.1,0.6c-11.9,1.8-23.8,3.6-35.7,5.3c0-0.2-0.1-0.4-0.1-0.6 C36.8,81.8,36,77,33.8,62.2c-0.1-0.4-0.2-0.9-0.5-1.2c-0.6-0.6-1.4-0.6-2.2,0c-1.3,1.1-2.7,2.2-4,3.2c-0.8,0.6-1.6,1.3-2.4,2 c-2.6-2.8-5.1-5.6-7.7-8.4c0.9-0.8,1.7-1.7,2.5-2.5c3.4-3.4,6.8-6.7,10.2-10.1c0.2-0.2,0.4-0.3,0.6-0.4c2-0.5,3.9-1.1,5.9-1.6 c0.2-0.1,0.5-0.1,0.7-0.2c0.5,1.2,0.9,2.3,1.4,3.5c0.4,1.1,0.9,2.2,1.3,3.3c0.5,1.2,1.8,1.4,2.7,0.5c1.6-1.7,3.3-3.5,4.9-5.2 C47.3,44.9,47.4,44.8,47.6,44.7z"/>
            <path fill="#CAD1D6" d="M38.6,97.8l-5.3-35.5c-0.1-0.5-0.1-0.7-0.4-0.9c-0.4-0.4-1-0.4-1.5,0c-0.9,0.7-1.8,1.4-2.7,2.1 l-4.2,3.3l-8.4-9.1l3.6-3.6c3.2-3.1,6.3-6.2,9.5-9.3c0.2-0.2,0.4-0.4,0.8-0.5c1.5-0.4,3-0.8,4.5-1.2l2.5-0.7l1.9,4.8 c0.3,0.8,0.6,1.6,1,2.4c0.2,0.4,0.5,0.7,0.8,0.7c0.4,0.1,0.7-0.1,1-0.4c1.1-1.2,2.2-2.4,3.4-3.6l2.6-2.8l0.7,4.4 c0.6,4,1.2,7.9,1.8,11.9c0.1,0.4,0.1,0.6,0.3,0.8c0.2,0.4,0.8,0.6,1.2,0.4c0.5-0.2,0.8-0.6,0.7-1.1c-0.3-1.8-0.5-3.5-0.8-5.3 l-1.8-11.8l3.5,2c1.5,0.9,3.1,1.8,4.6,2.7c0.4,0.3,0.9,0.3,1.3,0.1c0.4-0.2,0.6-0.6,0.6-1.1c0.1-1.6,0.2-3.2,0.4-4.7l0.2-1.9 c0-0.1,0-0.2,0-0.3l0.1-0.5l3.9-0.1c1,0,2-0.1,3-0.1c0.3,0,0.8,0,1.3,0.3c4.2,2.2,8.4,4.4,12.6,6.6l3.6,1.9l-5.3,11.1l-4.8-1.9 c-1.1-0.4-2.2-0.9-3.3-1.3c-0.4-0.2-0.8-0.1-1.1,0c-0.3,0.2-0.4,0.4-0.5,0.8c0,0.1,0,0.3,0,0.5l0,0.1l5.3,35.5L38.6,97.8z M32.3,60c0.5,0,1,0.2,1.4,0.6c0.5,0.4,0.6,1,0.7,1.5l5.2,34.5l34.7-5.2L69,56.8c0-0.2-0.1-0.5,0-0.8c0.1-0.6,0.4-1.2,0.9-1.5 c0.6-0.4,1.3-0.4,2-0.1c1.1,0.4,2.2,0.9,3.3,1.3l3.9,1.6l4.5-9.4l-2.7-1.4c-4.2-2.2-8.4-4.4-12.6-6.6c-0.2-0.1-0.5-0.2-0.8-0.2 c-1,0-2,0-3,0.1l-3,0.1c-0.1,0.6-0.1,1.2-0.2,1.9c-0.1,1.5-0.3,3.1-0.4,4.7c-0.1,0.9-0.5,1.6-1.2,2c-0.7,0.4-1.5,0.3-2.2-0.1 c-1.5-0.9-3.1-1.8-4.6-2.7l-1.7-1l1.5,9.8c0.3,1.8,0.5,3.5,0.8,5.3c0.1,1-0.4,1.9-1.3,2.2c-0.9,0.3-1.9,0-2.4-0.8 c-0.2-0.3-0.3-0.7-0.4-1.2c-0.6-4-1.2-7.9-1.8-11.9l-0.4-2.4L46,47c-1.1,1.2-2.2,2.4-3.4,3.6c-0.5,0.6-1.2,0.8-1.9,0.7 c-0.7-0.1-1.3-0.6-1.6-1.3c-0.3-0.8-0.7-1.6-1-2.4l-1.6-3.9L35,44.1c-1.5,0.4-3,0.8-4.5,1.2c-0.1,0-0.2,0.1-0.3,0.2 c-3.2,3.1-6.3,6.2-9.5,9.3l-2.9,2.9l7.1,7.7l3.4-2.7c0.9-0.7,1.8-1.4,2.7-2.2C31.3,60.2,31.8,60,32.3,60z"/>
            </g>
            <g>
            <path fill="#63C7C8" d="M51.6,40.7c1.4-1.6,2.7-3.2,4-4.8c0.7,0.9,1.4,1.9,2.1,2.8c0.1,0.1,0.1,0.2,0.1,0.4 c-0.1,1.6-0.3,3.3-0.4,5C55.5,42.9,53.6,41.8,51.6,40.7z"/>
            <path fill="#CAD1D6" d="M57.9,44.8l-7-4l4.8-5.7l0.8,1.1c0.6,0.7,1.1,1.5,1.7,2.2c0.1,0.2,0.2,0.4,0.2,0.7 c-0.1,1.3-0.2,2.6-0.3,3.9L57.9,44.8z M52.4,40.5l4.6,2.7l0-0.3c0.1-1.3,0.2-2.6,0.3-3.9c-0.5-0.7-1.1-1.5-1.7-2.2l-0.1-0.1 L52.4,40.5z"/>
            </g>
            <g>
            <path fill="#63C7C8" d="M46.2,41.5c-1.5,1.6-3,3.2-4.6,4.9c-0.4-0.9-0.7-1.7-1-2.6c-0.3-0.6-0.5-1.3-0.8-1.9 c-0.1-0.2-0.1-0.4,0-0.6c0.4-1.1,0.8-2.1,1.2-3.2C42.7,39.2,44.4,40.3,46.2,41.5z"/>
            <path fill="#CAD1D6" d="M41.4,47.3l-1.5-3.7c-0.2-0.5-0.4-1-0.6-1.5c-0.1-0.2-0.2-0.6,0-0.9c0.3-0.8,0.6-1.6,0.9-2.4l0.5-1.4 l6.3,4.1L41.4,47.3z M41.2,38.8l-0.1,0.3c-0.3,0.8-0.6,1.6-0.9,2.3c0,0,0,0.1,0,0.3c0.2,0.5,0.4,1,0.6,1.5l0.9,2.3l3.6-3.9 L41.2,38.8z"/>
            </g>
            <g>
            <path fill="#63C7C8" d="M48.6,39.3c-1.4-0.9-2.7-1.8-4.1-2.7c2.5-0.4,4.8-0.7,7.3-1.1C50.7,36.8,49.7,38.1,48.6,39.3z"/>
            <path fill="#CAD1D6" d="M48.7,40l-5.6-3.7l9.9-1.5L48.7,40z M45.9,36.9l2.7,1.7l2-2.4L45.9,36.9z"/>
            </g>
            </g>
            </g>
            <g>
            <circle fill="#B9D17F" cx="32.1" cy="86.3" r="15.3"/>
            <g>
            <path fill="#FFFFFF" d="M32.2,93.5c-1.9,0-3.8-0.4-5.4-1.3l1.3-2.7c1.3,0.7,2.5,1.2,3.8,1.2l-0.5-3.4c-3.2-0.4-5-1.3-5.3-3.9 l0,0c-0.4-2.4,1.2-4.2,3.9-4.9l-0.2-1.3l2.2-0.3l0.2,1.3c1.6,0,2.9,0.3,4.3,1l-1.1,2.7c-1-0.5-2-0.8-2.9-0.9l0.5,3.3 c3.4,0.4,5,1.5,5.4,3.9l0,0c0.4,2.4-1.3,4.3-3.9,4.9l0.3,2.1l-2.2,0.3L32.2,93.5z M30.9,84.1l-0.4-2.9c-1,0.3-1.4,0.9-1.3,1.6 l0,0C29.3,83.4,29.7,83.8,30.9,84.1z M33.5,87.5l0.5,3c1-0.3,1.4-0.8,1.3-1.6l0,0C35.2,88.2,34.7,87.8,33.5,87.5z"/>
            </g>
            </g>
            </g>
            <g>
            <circle fill="#B9D17F" cx="118.4" cy="103.8" r="7.9"/>
            <g>
            <path fill="#FFFFFF" d="M119.1,107.5c-1,0.1-2-0.1-2.8-0.5l0.6-1.4c0.7,0.3,1.3,0.5,2,0.5l-0.3-1.8c-1.7-0.1-2.6-0.6-2.8-1.9l0,0 c-0.2-1.2,0.5-2.2,1.9-2.6l-0.1-0.6l1.2-0.2l0.1,0.7c0.8-0.1,1.5,0.1,2.2,0.4l-0.5,1.4c-0.5-0.2-1-0.4-1.5-0.4l0.3,1.7 c1.8,0.1,2.6,0.7,2.9,1.9l0,0c0.2,1.2-0.6,2.2-1.9,2.6l0.2,1.1l-1.2,0.2L119.1,107.5z M118.2,102.7l-0.3-1.5 c-0.5,0.2-0.7,0.5-0.6,0.8l0,0C117.3,102.4,117.5,102.6,118.2,102.7z M119.6,104.4l0.3,1.5c0.5-0.2,0.7-0.5,0.6-0.9l0,0 C120.5,104.7,120.2,104.5,119.6,104.4z"/>
            </g>
            </g>
            </g>
            <g id="mini">
            <g opacity="2.000000e-02">
            <path d="M187.6,103.4l-1.3-0.2C187.1,103.4,187.6,103.4,187.6,103.4z"/>
            </g>
            <g>
            <g>
            <path fill="#FCF9EC" d="M217.2,59.7l-61.9-9.1c0,0-2.2,28.1-17,40.3l54,11.2C192.3,102.1,206.2,105.8,217.2,59.7z"/>
            <path fill="#A2ABB5" d="M193.1,103.4c-0.6,0-1-0.1-1.1-0.1l-56.4-11.7l2-1.6c14.2-11.8,16.5-39.2,16.5-39.5l0.1-1.3l64.5,9.5 l-0.3,1.3c-6.8,28.6-14.9,38.6-20.4,41.9C195.8,103.1,194.1,103.4,193.1,103.4z M141,90.2l51.6,10.7c0.2,0,12.7,2.3,23.1-40.2 l-59.3-8.8c-0.3,2.4-1,8-2.9,14.5C150.6,76.9,146.4,84.9,141,90.2z"/>
            </g>
            <g opacity="0.5">
            <path fill="#F2CC8F" d="M180.9,66.3l-17.6-2c0,0-0.5,8.4-6.9,18.9l17.6,2.5C174.1,85.7,178.9,81.6,180.9,66.3z"/>
            <path fill="#A2ABB5" d="M174.4,87l-19.9-2.8l1-1.6c6.1-10.1,6.7-18.3,6.7-18.4l0.1-1.3l20.1,2.3l-0.2,1.2 c-2.1,15.6-7.1,20-7.3,20.1L174.4,87z M158.5,82.3l15.1,2.2c1-1.2,4.3-5.8,5.9-17l-15.1-1.8C164.1,68.3,162.8,74.6,158.5,82.3z"/>
            </g>
            <g>
            <path fill="#E2DECC" d="M192.3,102.1c0,0-12-0.8-15-12.4L118,81.6c0,0,2.6,7.7,7.4,11L192.3,102.1z"/>
            <path fill="#A2ABB5" d="M192.2,103.3c0,0-0.5,0-1.2-0.2l-66.2-9.4l-0.2-0.2c-5.1-3.4-7.7-11.3-7.8-11.6l-0.6-1.9l62.1,8.5 l0.2,0.8c2.2,8.4,9.4,10.6,12.5,11.2l1.5,0.2L192.2,103.3z M125.8,91.4l56.6,8c-2.5-1.9-4.8-4.6-6-8.6l-56.5-7.7 C120.9,85.4,122.9,89.4,125.8,91.4z"/>
            </g>
            <g opacity="0.1">
            <path fill="#39BEC1" d="M182.4,74.7c-0.5,1.6-1.1,3.3-2,5.1l18,2.7c0.6-1.4,1.2-3.1,1.7-5.2L182.4,74.7z"/>
            <path fill="#39BEC1" d="M177.2,85.9l17.6,2.5c0,0,1.1-1,2.5-3.7l-18-2.7C178.7,83.3,178,84.6,177.2,85.9z"/>
            <path fill="#39BEC1" d="M201.9,69.1L184.1,67c0,0-0.1,1.8-0.9,4.8l17.5,2.6C201.1,72.8,201.7,71,201.9,69.1z"/>
            </g>
            </g>
            </g>
            <g id="magnify">
            <circle id="XMLID_239_" opacity="0.75" fill="#FFFFFF" cx="124.4" cy="76.3" r="37.5"/>
            <g id="HLgAXq.tif">
            <g id="XMLID_370_">
            <g>
            <path id="XMLID_6_" fill="#EBEEF2" d="M114,35c22.7-5.8,45.8,8,51.6,30.8c5.8,22.8-8.1,46.1-31.2,51.7 c-23.2,5.6-45.6-8.7-51.2-30.8C77.4,63.9,91.2,40.8,114,35z M132.5,108.3c17.7-4.5,28.5-22.5,24-40.1 c-4.5-17.7-22.5-28.5-39.9-24.2c-17.4,4.2-28.8,21.8-24.5,39.9C96.4,101.7,114.4,112.9,132.5,108.3z"/>
            <path id="XMLID_3_" fill="#A3ABB5" d="M124.4,33.7l0,2h0c18.5,0,34.6,12.6,39.2,30.6c2.7,10.6,1.1,21.5-4.6,30.9 c-5.6,9.3-14.5,15.8-25.1,18.4c-3.2,0.8-6.4,1.2-9.7,1.2c-18.5,0-34.6-12.6-39.1-30.5c-5.5-21.6,7.7-43.7,29.3-49.2 c3.3-0.8,6.6-1.3,10-1.3L124.4,33.7 M124.4,111.4c2.9,0,5.8-0.4,8.7-1.1c18.8-4.8,30.2-23.9,25.5-42.6 c-4-15.7-18-26.7-34.1-26.7c-2.7,0-5.5,0.3-8.1,1c-18.8,4.6-30.4,23.6-26,42.3C94,100.3,108,111.4,124.4,111.4 M124.4,33.7 c-3.5,0-7,0.4-10.5,1.3c-22.8,5.8-36.5,28.9-30.7,51.7c4.8,18.9,21.8,32,41.1,32c3.3,0,6.7-0.4,10.1-1.2 c23.1-5.6,37-28.9,31.2-51.7C160.7,46.5,143.4,33.7,124.4,33.7L124.4,33.7z M124.4,109.4c-15.1,0-28.6-10.4-32.2-25.5 c-4.3-18.2,7.2-35.7,24.5-39.9c2.6-0.6,5.1-0.9,7.7-0.9c14.7,0,28.4,10.1,32.2,25.1c4.5,17.6-6.3,35.6-24,40.1 C129.8,109,127.1,109.4,124.4,109.4L124.4,109.4z"/>
            </g>
            <g>
            <path id="XMLID_5_" fill="#C4BDB3" d="M204.8,129.2c-2.7,3.4-5.3,6.8-8,10.4c-0.2-0.2-0.3-0.4-0.5-0.5 c-2.8-2.1-33.5-24.9-36.2-27c-2.8-2.1-3.1-4.9-1-7.6c0.5-0.7,1.1-1.4,1.6-2.1c1.8-2.3,4.7-2.6,7-0.9 C170.7,103.8,201.6,126.7,204.8,129.2z"/>
            <path id="XMLID_2_" fill="#A3ABB5" d="M164.5,102.3L164.5,102.3c0.6,0,1.3,0.2,1.9,0.7c1.3,1,7.2,5.4,14,10.5 c8,5.9,17.6,13.1,21.5,16.1l-1,1.3l-4.5,5.8c-2.7-2.1-9.8-7.3-17.1-12.8c-8.2-6.1-16.7-12.4-18.1-13.5c-1.9-1.5-2.1-2.9-0.6-4.8 l0.3-0.4c0.4-0.6,0.8-1.1,1.3-1.6C162.8,102.8,163.6,102.3,164.5,102.3 M164.5,100.3c-1.4,0-2.8,0.7-3.9,2 c-0.6,0.7-1.1,1.4-1.6,2.1c-2.1,2.8-1.7,5.5,1,7.6c2.8,2.1,33.5,24.9,36.2,27c0.2,0.2,0.4,0.4,0.5,0.5c2.8-3.6,5.4-7,8-10.4 c-3.2-2.4-34.1-25.4-37.2-27.7C166.6,100.7,165.5,100.3,164.5,100.3L164.5,100.3z"/>
            </g>
            <g>
            <path id="XMLID_4_" fill="#C4BDB3" d="M208.4,131.8c2.2,1.7,4.4,3.3,6.4,5.1c2.1,1.7,2.3,4.5,0.8,6.6c-0.7,0.9-1.4,1.8-2.1,2.7 c-1.8,2.1-4.6,2.4-6.8,0.8c-2-1.5-4.1-3.1-6.1-4.7c0,0-0.1-0.1-0.1-0.2c0.1-0.1,0.2-0.3,0.3-0.4 C203.2,138.4,205.8,135.2,208.4,131.8z"/>
            <path id="XMLID_1_" fill="#A3ABB5" d="M208.7,134.6c0.2,0.1,0.3,0.2,0.5,0.3c1.5,1.2,3,2.3,4.4,3.4c1.2,1,1.4,2.6,0.4,3.9 c-0.7,1-1.4,1.8-2,2.6c-0.6,0.7-1.4,1.1-2.2,1.1c-0.6,0-1.3-0.2-1.8-0.7c-1.5-1.1-2.9-2.2-4.3-3.4c-0.1-0.1-0.2-0.2-0.3-0.3 C205,139.4,206.9,137,208.7,134.6 M208.4,131.8c-2.6,3.4-5.1,6.6-7.7,9.9c-0.1,0.1-0.2,0.3-0.3,0.4c0.1,0.1,0.1,0.1,0.1,0.2 c2,1.6,4,3.2,6.1,4.7c0.9,0.7,2,1.1,3,1.1c1.4,0,2.7-0.6,3.8-1.8c0.7-0.9,1.4-1.8,2.1-2.7c1.6-2.2,1.3-4.9-0.8-6.6 C212.8,135.1,210.6,133.5,208.4,131.8L208.4,131.8z"/>
            </g>
            </g>
            </g>
            <path id="XMLID_234_" fill="#DEE5ED" d="M128.1,46.1c9.5,3,17.3,10.7,19.9,21.1c4.1,15.9-5.6,32.2-21.5,36.2 c-3.2,0.8-6.3,1.1-9.4,0.9c5.1,1.6,10.7,1.9,16.3,0.4c15.9-4.1,25.6-20.3,21.5-36.2C151.7,55.6,140.6,46.9,128.1,46.1z"/>
            </g>
            </svg>